<svg xmlns="http://www.w3.org/2000/svg" xmlns:xlink="http://www.w3.org/1999/xlink" width="510" zoomAndPan="magnify" viewBox="0 0 382.5 77.249999" height="103" preserveAspectRatio="xMidYMid meet" version="1.2"><defs><clipPath id="f78ad58d16"><path d="M 13 11 L 66 11 L 66 65 L 13 65 Z M 13 11 "/></clipPath><clipPath id="c9ade46ce1"><path d="M 30.914062 11.925781 L 65.851562 46.863281 L 48.382812 64.332031 L 13.445312 29.394531 Z M 30.914062 11.925781 "/></clipPath><clipPath id="c820400107"><path d="M 30.914062 11.925781 L 65.851562 46.863281 L 48.382812 64.332031 L 13.445312 29.394531 Z M 30.914062 11.925781 "/></clipPath><clipPath id="95de084be4"><path d="M 24.394531 24 L 44.402344 24 L 44.402344 43 L 24.394531 43 Z M 24.394531 24 "/></clipPath><clipPath id="2f79401886"><path d="M 13 52 L 26 52 L 26 65 L 13 65 Z M 13 52 "/></clipPath><clipPath id="432e092b6b"><path d="M 26.207031 76.183594 L 1.574219 51.550781 L 15.027344 38.101562 L 39.65625 62.730469 Z M 26.207031 76.183594 "/></clipPath><clipPath id="e7ff780de1"><path d="M 26.207031 76.183594 L 1.574219 51.550781 L 15.027344 38.101562 L 39.65625 62.730469 Z M 26.207031 76.183594 "/></clipPath><clipPath id="82b6726c08"><path d="M 8 44 L 21 44 L 21 47 L 8 47 Z M 8 44 "/></clipPath><clipPath id="799c381ae4"><path d="M 26.207031 76.183594 L 1.574219 51.550781 L 15.027344 38.101562 L 39.65625 62.730469 Z M 26.207031 76.183594 "/></clipPath><clipPath id="a514a0f015"><path d="M 26.207031 76.183594 L 1.574219 51.550781 L 15.027344 38.101562 L 39.65625 62.730469 Z M 26.207031 76.183594 "/></clipPath><clipPath id="82e7f44637"><path d="M 15 49 L 21 49 L 21 53 L 15 53 Z M 15 49 "/></clipPath><clipPath id="27bf8efa90"><path d="M 26.207031 76.183594 L 1.574219 51.550781 L 15.027344 38.101562 L 39.65625 62.730469 Z M 26.207031 76.183594 "/></clipPath><clipPath id="644143e52d"><path d="M 26.207031 76.183594 L 1.574219 51.550781 L 15.027344 38.101562 L 39.65625 62.730469 Z M 26.207031 76.183594 "/></clipPath><clipPath id="b72e05e974"><path d="M 25 55 L 29 55 L 29 62 L 25 62 Z M 25 55 "/></clipPath><clipPath id="132d3f1e18"><path d="M 26.207031 76.183594 L 1.574219 51.550781 L 15.027344 38.101562 L 39.65625 62.730469 Z M 26.207031 76.183594 "/></clipPath><clipPath id="2c5fcde9e4"><path d="M 26.207031 76.183594 L 1.574219 51.550781 L 15.027344 38.101562 L 39.65625 62.730469 Z M 26.207031 76.183594 "/></clipPath><clipPath id="adc8001dba"><path d="M 32 56 L 35 56 L 35 69 L 32 69 Z M 32 56 "/></clipPath><clipPath id="f675ceaa8b"><path d="M 26.207031 76.183594 L 1.574219 51.550781 L 15.027344 38.101562 L 39.65625 62.730469 Z M 26.207031 76.183594 "/></clipPath><clipPath id="f1ab6ce334"><path d="M 26.207031 76.183594 L 1.574219 51.550781 L 15.027344 38.101562 L 39.65625 62.730469 Z M 26.207031 76.183594 "/></clipPath><clipPath id="00ff2403ac"><path d="M 54 12 L 66 12 L 66 24 L 54 24 Z M 54 12 "/></clipPath><clipPath id="94704ef9ad"><path d="M 64.296875 38.089844 L 39.667969 13.460938 L 53.117188 0.0078125 L 77.75 24.640625 Z M 64.296875 38.089844 "/></clipPath><clipPath id="60e6a2595a"><path d="M 77.773438 24.613281 L 53.144531 -0.015625 L 39.691406 13.433594 L 64.324219 38.066406 Z M 77.773438 24.613281 "/></clipPath><clipPath id="ece9abafea"><path d="M 46 6 L 49 6 L 49 19 L 46 19 Z M 46 6 "/></clipPath><clipPath id="b4e0cdec97"><path d="M 64.296875 38.089844 L 39.667969 13.460938 L 53.117188 0.0078125 L 77.75 24.640625 Z M 64.296875 38.089844 "/></clipPath><clipPath id="9f29710f5e"><path d="M 77.773438 24.613281 L 53.144531 -0.015625 L 39.691406 13.433594 L 64.324219 38.066406 Z M 77.773438 24.613281 "/></clipPath><clipPath id="80d2398357"><path d="M 51 13 L 54 13 L 54 20 L 51 20 Z M 51 13 "/></clipPath><clipPath id="188abe6663"><path d="M 64.296875 38.089844 L 39.667969 13.460938 L 53.117188 0.0078125 L 77.75 24.640625 Z M 64.296875 38.089844 "/></clipPath><clipPath id="6a444f9ac7"><path d="M 77.773438 24.613281 L 53.144531 -0.015625 L 39.691406 13.433594 L 64.324219 38.066406 Z M 77.773438 24.613281 "/></clipPath><clipPath id="e4aab6f170"><path d="M 57 24 L 64 24 L 64 27 L 57 27 Z M 57 24 "/></clipPath><clipPath id="a816cc16b8"><path d="M 64.296875 38.089844 L 39.667969 13.460938 L 53.117188 0.0078125 L 77.75 24.640625 Z M 64.296875 38.089844 "/></clipPath><clipPath id="72d373c7aa"><path d="M 77.773438 24.613281 L 53.144531 -0.015625 L 39.691406 13.433594 L 64.324219 38.066406 Z M 77.773438 24.613281 "/></clipPath><clipPath id="195b09e1ba"><path d="M 58 31 L 70 31 L 70 33 L 58 33 Z M 58 31 "/></clipPath><clipPath id="ded60f18ce"><path d="M 64.296875 38.089844 L 39.667969 13.460938 L 53.117188 0.0078125 L 77.75 24.640625 Z M 64.296875 38.089844 "/></clipPath><clipPath id="84de6f83f0"><path d="M 77.773438 24.613281 L 53.144531 -0.015625 L 39.691406 13.433594 L 64.324219 38.066406 Z M 77.773438 24.613281 "/></clipPath></defs><g id="3d1d7a67de"><g style="fill:#151515;fill-opacity:1;"><g transform="translate(77.777627, 49.262947)"><path style="stroke:none" d="M 1.453125 -25.34375 L 7.75 -25.34375 C 9.75 -25.34375 11.238281 -24.8125 12.21875 -23.75 C 13.195312 -22.6875 13.6875 -21.128906 13.6875 -19.078125 L 13.6875 -6.265625 C 13.6875 -4.210938 13.195312 -2.65625 12.21875 -1.59375 C 11.238281 -0.53125 9.75 0 7.75 0 L 1.453125 0 Z M 5.4375 -21.71875 L 5.4375 -3.625 L 7.671875 -3.625 C 8.296875 -3.625 8.789062 -3.800781 9.15625 -4.15625 C 9.519531 -4.519531 9.703125 -5.160156 9.703125 -6.078125 L 9.703125 -19.265625 C 9.703125 -20.179688 9.519531 -20.816406 9.15625 -21.171875 C 8.789062 -21.535156 8.296875 -21.71875 7.671875 -21.71875 Z M 5.4375 -21.71875 "/></g></g><g style="fill:#151515;fill-opacity:1;"><g transform="translate(92.546973, 49.262947)"><path style="stroke:none" d="M 5.4375 -14.65625 L 10.890625 -14.65625 L 10.890625 -11.046875 L 5.4375 -11.046875 L 5.4375 -3.625 L 12.3125 -3.625 L 12.3125 0 L 1.453125 0 L 1.453125 -25.34375 L 12.3125 -25.34375 L 12.3125 -21.71875 L 5.4375 -21.71875 Z M 5.4375 -14.65625 "/></g></g><g style="fill:#151515;fill-opacity:1;"><g transform="translate(105.868338, 49.262947)"><path style="stroke:none" d="M 0.9375 -19.265625 C 0.9375 -21.316406 1.425781 -22.890625 2.40625 -23.984375 C 3.382812 -25.078125 4.851562 -25.625 6.8125 -25.625 C 8.757812 -25.625 10.222656 -25.078125 11.203125 -23.984375 C 12.179688 -22.890625 12.671875 -21.316406 12.671875 -19.265625 L 12.671875 -18.28125 L 8.90625 -18.28125 L 8.90625 -19.515625 C 8.90625 -20.429688 8.726562 -21.078125 8.375 -21.453125 C 8.03125 -21.828125 7.546875 -22.015625 6.921875 -22.015625 C 6.285156 -22.015625 5.789062 -21.828125 5.4375 -21.453125 C 5.09375 -21.078125 4.921875 -20.429688 4.921875 -19.515625 C 4.921875 -18.640625 5.113281 -17.867188 5.5 -17.203125 C 5.882812 -16.546875 6.363281 -15.921875 6.9375 -15.328125 C 7.519531 -14.734375 8.144531 -14.140625 8.8125 -13.546875 C 9.476562 -12.960938 10.097656 -12.320312 10.671875 -11.625 C 11.253906 -10.925781 11.738281 -10.128906 12.125 -9.234375 C 12.507812 -8.335938 12.703125 -7.285156 12.703125 -6.078125 C 12.703125 -4.023438 12.203125 -2.445312 11.203125 -1.34375 C 10.203125 -0.25 8.722656 0.296875 6.765625 0.296875 C 4.816406 0.296875 3.335938 -0.25 2.328125 -1.34375 C 1.328125 -2.445312 0.828125 -4.023438 0.828125 -6.078125 L 0.828125 -7.8125 L 4.59375 -7.8125 L 4.59375 -5.828125 C 4.59375 -4.910156 4.78125 -4.269531 5.15625 -3.90625 C 5.53125 -3.539062 6.03125 -3.359375 6.65625 -3.359375 C 7.289062 -3.359375 7.789062 -3.539062 8.15625 -3.90625 C 8.53125 -4.269531 8.71875 -4.910156 8.71875 -5.828125 C 8.71875 -6.691406 8.523438 -7.457031 8.140625 -8.125 C 7.753906 -8.789062 7.269531 -9.414062 6.6875 -10 C 6.113281 -10.59375 5.492188 -11.1875 4.828125 -11.78125 C 4.171875 -12.375 3.550781 -13.019531 2.96875 -13.71875 C 2.382812 -14.414062 1.898438 -15.210938 1.515625 -16.109375 C 1.128906 -17.003906 0.9375 -18.054688 0.9375 -19.265625 Z M 0.9375 -19.265625 "/></g></g><g style="fill:#151515;fill-opacity:1;"><g transform="translate(119.406896, 49.262947)"><path style="stroke:none" d="M 13 -9.453125 L 13 -6.078125 C 13 -4.023438 12.492188 -2.445312 11.484375 -1.34375 C 10.484375 -0.25 9.007812 0.296875 7.0625 0.296875 C 5.101562 0.296875 3.625 -0.25 2.625 -1.34375 C 1.625 -2.445312 1.125 -4.023438 1.125 -6.078125 L 1.125 -19.265625 C 1.125 -21.316406 1.625 -22.890625 2.625 -23.984375 C 3.625 -25.078125 5.101562 -25.625 7.0625 -25.625 C 9.007812 -25.625 10.484375 -25.078125 11.484375 -23.984375 C 12.492188 -22.890625 13 -21.316406 13 -19.265625 L 13 -16.796875 L 9.234375 -16.796875 L 9.234375 -19.515625 C 9.234375 -20.429688 9.046875 -21.078125 8.671875 -21.453125 C 8.296875 -21.828125 7.796875 -22.015625 7.171875 -22.015625 C 6.546875 -22.015625 6.046875 -21.828125 5.671875 -21.453125 C 5.296875 -21.078125 5.109375 -20.429688 5.109375 -19.515625 L 5.109375 -5.828125 C 5.109375 -4.910156 5.296875 -4.269531 5.671875 -3.90625 C 6.046875 -3.539062 6.546875 -3.359375 7.171875 -3.359375 C 7.796875 -3.359375 8.296875 -3.539062 8.671875 -3.90625 C 9.046875 -4.269531 9.234375 -4.910156 9.234375 -5.828125 L 9.234375 -9.453125 Z M 13 -9.453125 "/></g></g><g style="fill:#151515;fill-opacity:1;"><g transform="translate(133.379855, 49.262947)"><path style="stroke:none" d="M 5.109375 -5.828125 C 5.109375 -4.910156 5.296875 -4.265625 5.671875 -3.890625 C 6.046875 -3.515625 6.546875 -3.328125 7.171875 -3.328125 C 7.796875 -3.328125 8.296875 -3.515625 8.671875 -3.890625 C 9.046875 -4.265625 9.234375 -4.910156 9.234375 -5.828125 L 9.234375 -19.515625 C 9.234375 -20.429688 9.046875 -21.078125 8.671875 -21.453125 C 8.296875 -21.828125 7.796875 -22.015625 7.171875 -22.015625 C 6.546875 -22.015625 6.046875 -21.828125 5.671875 -21.453125 C 5.296875 -21.078125 5.109375 -20.429688 5.109375 -19.515625 Z M 1.125 -19.265625 C 1.125 -21.316406 1.640625 -22.890625 2.671875 -23.984375 C 3.710938 -25.078125 5.210938 -25.625 7.171875 -25.625 C 9.117188 -25.625 10.613281 -25.078125 11.65625 -23.984375 C 12.695312 -22.890625 13.21875 -21.316406 13.21875 -19.265625 L 13.21875 -6.078125 C 13.21875 -4.023438 12.695312 -2.445312 11.65625 -1.34375 C 10.613281 -0.25 9.117188 0.296875 7.171875 0.296875 C 5.210938 0.296875 3.710938 -0.25 2.671875 -1.34375 C 1.640625 -2.445312 1.125 -4.023438 1.125 -6.078125 Z M 1.125 -19.265625 "/></g></g><g style="fill:#151515;fill-opacity:1;"><g transform="translate(147.714801, 49.262947)"><path style="stroke:none" d="M 5 -18.359375 L 5 0 L 1.40625 0 L 1.40625 -25.34375 L 6.40625 -25.34375 L 10.5 -10.171875 L 10.5 -25.34375 L 14.046875 -25.34375 L 14.046875 0 L 9.953125 0 Z M 5 -18.359375 "/></g></g><g style="fill:#151515;fill-opacity:1;"><g transform="translate(163.171932, 49.262947)"><path style="stroke:none" d="M 0.359375 -25.34375 L 12.671875 -25.34375 L 12.671875 -21.71875 L 8.5 -21.71875 L 8.5 0 L 4.53125 0 L 4.53125 -21.71875 L 0.359375 -21.71875 Z M 0.359375 -25.34375 "/></g></g><g style="fill:#151515;fill-opacity:1;"><g transform="translate(176.2037, 49.262947)"><path style="stroke:none" d="M 5.109375 -5.828125 C 5.109375 -4.910156 5.296875 -4.265625 5.671875 -3.890625 C 6.046875 -3.515625 6.546875 -3.328125 7.171875 -3.328125 C 7.796875 -3.328125 8.296875 -3.515625 8.671875 -3.890625 C 9.046875 -4.265625 9.234375 -4.910156 9.234375 -5.828125 L 9.234375 -19.515625 C 9.234375 -20.429688 9.046875 -21.078125 8.671875 -21.453125 C 8.296875 -21.828125 7.796875 -22.015625 7.171875 -22.015625 C 6.546875 -22.015625 6.046875 -21.828125 5.671875 -21.453125 C 5.296875 -21.078125 5.109375 -20.429688 5.109375 -19.515625 Z M 1.125 -19.265625 C 1.125 -21.316406 1.640625 -22.890625 2.671875 -23.984375 C 3.710938 -25.078125 5.210938 -25.625 7.171875 -25.625 C 9.117188 -25.625 10.613281 -25.078125 11.65625 -23.984375 C 12.695312 -22.890625 13.21875 -21.316406 13.21875 -19.265625 L 13.21875 -6.078125 C 13.21875 -4.023438 12.695312 -2.445312 11.65625 -1.34375 C 10.613281 -0.25 9.117188 0.296875 7.171875 0.296875 C 5.210938 0.296875 3.710938 -0.25 2.671875 -1.34375 C 1.640625 -2.445312 1.125 -4.023438 1.125 -6.078125 Z M 1.125 -19.265625 "/></g></g><g style="fill:#151515;fill-opacity:1;"><g transform="translate(190.538646, 49.262947)"><path style="stroke:none" d=""/></g></g><g style="fill:#151515;fill-opacity:1;"><g transform="translate(196.149545, 49.262947)"><path style="stroke:none" d="M 5 -18.359375 L 5 0 L 1.40625 0 L 1.40625 -25.34375 L 6.40625 -25.34375 L 10.5 -10.171875 L 10.5 -25.34375 L 14.046875 -25.34375 L 14.046875 0 L 9.953125 0 Z M 5 -18.359375 "/></g></g><g style="fill:#151515;fill-opacity:1;"><g transform="translate(211.606676, 49.262947)"><path style="stroke:none" d="M 14.34375 0 L 10.3125 0 L 9.625 -4.59375 L 4.75 -4.59375 L 4.0625 0 L 0.390625 0 L 4.453125 -25.34375 L 10.28125 -25.34375 Z M 5.25 -8.03125 L 9.09375 -8.03125 L 7.171875 -20.859375 Z M 5.25 -8.03125 "/></g></g><g style="fill:#151515;fill-opacity:1;"><g transform="translate(226.339821, 49.262947)"><path style="stroke:none" d=""/></g></g><g style="fill:#151515;fill-opacity:1;"><g transform="translate(231.950721, 49.262947)"><path style="stroke:none" d="M 9.890625 -7.34375 L 12.59375 -25.34375 L 18.140625 -25.34375 L 18.140625 0 L 14.375 0 L 14.375 -18.171875 L 11.625 0 L 7.859375 0 L 4.890625 -17.921875 L 4.890625 0 L 1.40625 0 L 1.40625 -25.34375 L 6.953125 -25.34375 Z M 9.890625 -7.34375 "/></g></g><g style="fill:#151515;fill-opacity:1;"><g transform="translate(251.53458, 49.262947)"><path style="stroke:none" d="M 14.34375 0 L 10.3125 0 L 9.625 -4.59375 L 4.75 -4.59375 L 4.0625 0 L 0.390625 0 L 4.453125 -25.34375 L 10.28125 -25.34375 Z M 5.25 -8.03125 L 9.09375 -8.03125 L 7.171875 -20.859375 Z M 5.25 -8.03125 "/></g></g><g style="fill:#151515;fill-opacity:1;"><g transform="translate(266.267725, 49.262947)"><path style="stroke:none" d="M 1.125 -19.265625 C 1.125 -21.316406 1.640625 -22.890625 2.671875 -23.984375 C 3.710938 -25.078125 5.210938 -25.625 7.171875 -25.625 C 9.117188 -25.625 10.613281 -25.078125 11.65625 -23.984375 C 12.695312 -22.890625 13.21875 -21.316406 13.21875 -19.265625 L 13.21875 -6.078125 C 13.21875 -4.660156 12.960938 -3.476562 12.453125 -2.53125 C 12.546875 -2.289062 12.671875 -2.140625 12.828125 -2.078125 C 12.984375 -2.015625 13.234375 -1.984375 13.578125 -1.984375 L 13.9375 -1.984375 L 13.9375 1.5625 L 13.390625 1.5625 C 12.503906 1.5625 11.773438 1.410156 11.203125 1.109375 C 10.640625 0.804688 10.222656 0.375 9.953125 -0.1875 C 9.546875 -0.0390625 9.113281 0.0703125 8.65625 0.15625 C 8.195312 0.25 7.703125 0.296875 7.171875 0.296875 C 5.210938 0.296875 3.710938 -0.25 2.671875 -1.34375 C 1.640625 -2.445312 1.125 -4.023438 1.125 -6.078125 Z M 5.109375 -5.828125 C 5.109375 -4.910156 5.296875 -4.265625 5.671875 -3.890625 C 6.046875 -3.515625 6.546875 -3.328125 7.171875 -3.328125 C 7.796875 -3.328125 8.296875 -3.515625 8.671875 -3.890625 C 9.046875 -4.265625 9.234375 -4.910156 9.234375 -5.828125 L 9.234375 -19.515625 C 9.234375 -20.429688 9.046875 -21.078125 8.671875 -21.453125 C 8.296875 -21.828125 7.796875 -22.015625 7.171875 -22.015625 C 6.546875 -22.015625 6.046875 -21.828125 5.671875 -21.453125 C 5.296875 -21.078125 5.109375 -20.429688 5.109375 -19.515625 Z M 5.109375 -5.828125 "/></g></g><g style="fill:#151515;fill-opacity:1;"><g transform="translate(280.602659, 49.262947)"><path style="stroke:none" d="M 5.25 -25.34375 L 5.25 -5.796875 C 5.25 -4.878906 5.4375 -4.238281 5.8125 -3.875 C 6.1875 -3.507812 6.6875 -3.328125 7.3125 -3.328125 C 7.9375 -3.328125 8.4375 -3.507812 8.8125 -3.875 C 9.1875 -4.238281 9.375 -4.878906 9.375 -5.796875 L 9.375 -25.34375 L 13.140625 -25.34375 L 13.140625 -6.046875 C 13.140625 -3.992188 12.640625 -2.414062 11.640625 -1.3125 C 10.640625 -0.21875 9.160156 0.328125 7.203125 0.328125 C 5.242188 0.328125 3.765625 -0.21875 2.765625 -1.3125 C 1.765625 -2.414062 1.265625 -3.992188 1.265625 -6.046875 L 1.265625 -25.34375 Z M 5.25 -25.34375 "/></g></g><g style="fill:#151515;fill-opacity:1;"><g transform="translate(295.010007, 49.262947)"><path style="stroke:none" d="M 1.453125 -25.34375 L 5.4375 -25.34375 L 5.4375 0 L 1.453125 0 Z M 1.453125 -25.34375 "/></g></g><g style="fill:#151515;fill-opacity:1;"><g transform="translate(301.887895, 49.262947)"><path style="stroke:none" d="M 5 -18.359375 L 5 0 L 1.40625 0 L 1.40625 -25.34375 L 6.40625 -25.34375 L 10.5 -10.171875 L 10.5 -25.34375 L 14.046875 -25.34375 L 14.046875 0 L 9.953125 0 Z M 5 -18.359375 "/></g></g><g style="fill:#151515;fill-opacity:1;"><g transform="translate(317.345026, 49.262947)"><path style="stroke:none" d="M 1.453125 -25.34375 L 5.4375 -25.34375 L 5.4375 0 L 1.453125 0 Z M 1.453125 -25.34375 "/></g></g><g style="fill:#151515;fill-opacity:1;"><g transform="translate(324.222891, 49.262947)"><path style="stroke:none" d="M 5 -18.359375 L 5 0 L 1.40625 0 L 1.40625 -25.34375 L 6.40625 -25.34375 L 10.5 -10.171875 L 10.5 -25.34375 L 14.046875 -25.34375 L 14.046875 0 L 9.953125 0 Z M 5 -18.359375 "/></g></g><g style="fill:#151515;fill-opacity:1;"><g transform="translate(339.680044, 49.262947)"><path style="stroke:none" d="M 5.4375 0 L 1.453125 0 L 1.453125 -25.34375 L 5.4375 -25.34375 L 5.4375 -14.484375 L 9.953125 -14.484375 L 9.953125 -25.34375 L 14.015625 -25.34375 L 14.015625 0 L 9.953125 0 L 9.953125 -10.859375 L 5.4375 -10.859375 Z M 5.4375 0 "/></g></g><g style="fill:#151515;fill-opacity:1;"><g transform="translate(355.137151, 49.262947)"><path style="stroke:none" d="M 14.34375 0 L 10.3125 0 L 9.625 -4.59375 L 4.75 -4.59375 L 4.0625 0 L 0.390625 0 L 4.453125 -25.34375 L 10.28125 -25.34375 Z M 5.25 -8.03125 L 9.09375 -8.03125 L 7.171875 -20.859375 Z M 5.25 -8.03125 "/></g></g><g clip-rule="nonzero" clip-path="url(#f78ad58d16)"><g clip-rule="nonzero" clip-path="url(#c9ade46ce1)"><g clip-rule="nonzero" clip-path="url(#c820400107)"><path style=" stroke:none;fill-rule:evenodd;fill:#151515;fill-opacity:1;" d="M 46.402344 45.636719 C 46.308594 45.542969 46.15625 45.542969 46.058594 45.636719 C 45.964844 45.734375 45.964844 45.886719 46.058594 45.984375 C 46.152344 46.078125 46.308594 46.078125 46.402344 45.984375 C 46.5 45.886719 46.5 45.734375 46.402344 45.636719 M 45.8125 46.230469 C 45.714844 46.136719 45.5625 46.136719 45.464844 46.230469 C 45.371094 46.324219 45.371094 46.480469 45.464844 46.574219 C 45.5625 46.667969 45.714844 46.667969 45.8125 46.574219 C 45.90625 46.480469 45.90625 46.324219 45.8125 46.230469 Z M 45.21875 46.824219 C 45.125 46.726562 44.96875 46.726562 44.875 46.824219 C 44.777344 46.917969 44.777344 47.070312 44.875 47.167969 C 44.96875 47.261719 45.125 47.261719 45.21875 47.167969 C 45.3125 47.074219 45.3125 46.917969 45.21875 46.824219 Z M 44.625 47.417969 C 44.53125 47.320312 44.375 47.320312 44.28125 47.417969 C 44.1875 47.511719 44.1875 47.664062 44.28125 47.761719 C 44.375 47.855469 44.53125 47.855469 44.625 47.761719 C 44.71875 47.664062 44.71875 47.511719 44.625 47.417969 Z M 44.03125 48.007812 C 43.9375 47.914062 43.78125 47.914062 43.6875 48.007812 C 43.59375 48.105469 43.59375 48.257812 43.6875 48.351562 C 43.78125 48.449219 43.9375 48.449219 44.03125 48.351562 C 44.128906 48.257812 44.128906 48.105469 44.03125 48.007812 Z M 43.441406 48.601562 C 43.34375 48.507812 43.191406 48.507812 43.09375 48.601562 C 43 48.695312 43 48.851562 43.09375 48.945312 C 43.191406 49.039062 43.34375 49.039062 43.441406 48.945312 C 43.535156 48.851562 43.535156 48.695312 43.441406 48.601562 Z M 42.847656 49.195312 C 42.75 49.101562 42.597656 49.101562 42.503906 49.195312 C 42.40625 49.289062 42.40625 49.445312 42.503906 49.539062 C 42.597656 49.632812 42.75 49.632812 42.847656 49.539062 C 42.941406 49.445312 42.941406 49.289062 42.847656 49.195312 Z M 42.253906 49.789062 C 42.160156 49.691406 42.003906 49.691406 41.910156 49.789062 C 41.8125 49.882812 41.8125 50.035156 41.910156 50.132812 C 42.003906 50.226562 42.160156 50.226562 42.253906 50.132812 C 42.347656 50.035156 42.347656 49.882812 42.253906 49.789062 Z M 41.660156 50.378906 C 41.566406 50.285156 41.410156 50.285156 41.316406 50.378906 C 41.222656 50.476562 41.222656 50.628906 41.316406 50.722656 C 41.410156 50.820312 41.566406 50.820312 41.660156 50.722656 C 41.757812 50.628906 41.757812 50.476562 41.660156 50.378906 Z M 41.066406 50.972656 C 40.972656 50.878906 40.820312 50.878906 40.722656 50.972656 C 40.628906 51.066406 40.628906 51.222656 40.722656 51.316406 C 40.820312 51.414062 40.972656 51.414062 41.066406 51.316406 C 41.164062 51.222656 41.164062 51.066406 41.066406 50.972656 Z M 40.476562 51.566406 C 40.378906 51.472656 40.226562 51.472656 40.128906 51.566406 C 40.035156 51.660156 40.035156 51.816406 40.128906 51.910156 C 40.226562 52.003906 40.378906 52.003906 40.476562 51.910156 C 40.570312 51.816406 40.570312 51.660156 40.476562 51.566406 Z M 52.925781 39.117188 C 52.828125 39.019531 52.675781 39.019531 52.582031 39.117188 C 52.484375 39.210938 52.484375 39.367188 52.582031 39.460938 C 52.675781 39.554688 52.828125 39.554688 52.925781 39.460938 C 53.019531 39.367188 53.019531 39.210938 52.925781 39.117188 Z M 52.332031 39.707031 C 52.238281 39.613281 52.082031 39.613281 51.988281 39.707031 C 51.894531 39.804688 51.894531 39.957031 51.988281 40.054688 C 52.082031 40.148438 52.238281 40.148438 52.332031 40.054688 C 52.425781 39.957031 52.425781 39.804688 52.332031 39.707031 Z M 51.738281 40.300781 C 51.644531 40.207031 51.492188 40.207031 51.394531 40.300781 C 51.300781 40.398438 51.300781 40.550781 51.394531 40.644531 C 51.492188 40.742188 51.644531 40.742188 51.738281 40.644531 C 51.835938 40.550781 51.835938 40.398438 51.738281 40.300781 Z M 51.144531 40.894531 C 51.050781 40.800781 50.898438 40.800781 50.800781 40.894531 C 50.707031 40.988281 50.707031 41.144531 50.800781 41.238281 C 50.898438 41.335938 51.050781 41.335938 51.144531 41.238281 C 51.242188 41.144531 51.242188 40.988281 51.144531 40.894531 Z M 50.554688 41.488281 C 50.457031 41.390625 50.304688 41.390625 50.210938 41.488281 C 50.113281 41.582031 50.113281 41.738281 50.210938 41.832031 C 50.304688 41.925781 50.457031 41.925781 50.554688 41.832031 C 50.648438 41.738281 50.648438 41.582031 50.554688 41.488281 Z M 49.960938 42.082031 C 49.867188 41.984375 49.710938 41.984375 49.617188 42.082031 C 49.523438 42.175781 49.523438 42.328125 49.617188 42.425781 C 49.710938 42.519531 49.867188 42.519531 49.960938 42.425781 C 50.054688 42.328125 50.054688 42.175781 49.960938 42.082031 Z M 49.367188 42.671875 C 49.273438 42.578125 49.121094 42.578125 49.023438 42.671875 C 48.929688 42.769531 48.929688 42.921875 49.023438 43.019531 C 49.117188 43.113281 49.273438 43.113281 49.367188 43.015625 C 49.460938 42.921875 49.464844 42.769531 49.367188 42.671875 Z M 48.773438 43.265625 C 48.679688 43.171875 48.527344 43.171875 48.429688 43.265625 C 48.335938 43.363281 48.335938 43.515625 48.429688 43.609375 C 48.523438 43.707031 48.679688 43.707031 48.773438 43.609375 C 48.871094 43.515625 48.871094 43.363281 48.773438 43.265625 Z M 48.183594 43.859375 C 48.085938 43.765625 47.933594 43.765625 47.839844 43.859375 C 47.742188 43.953125 47.742188 44.109375 47.835938 44.203125 C 47.933594 44.300781 48.085938 44.300781 48.183594 44.203125 C 48.277344 44.105469 48.277344 43.953125 48.183594 43.859375 Z M 47.589844 44.453125 C 47.496094 44.355469 47.339844 44.355469 47.246094 44.453125 C 47.148438 44.546875 47.148438 44.703125 47.246094 44.796875 C 47.339844 44.890625 47.492188 44.890625 47.589844 44.796875 C 47.683594 44.703125 47.683594 44.546875 47.589844 44.453125 Z M 46.996094 45.046875 C 46.902344 44.949219 46.746094 44.949219 46.652344 45.046875 C 46.554688 45.140625 46.554688 45.292969 46.652344 45.390625 C 46.746094 45.484375 46.902344 45.484375 46.996094 45.390625 C 47.089844 45.292969 47.089844 45.140625 46.996094 45.046875 Z M 53.519531 38.523438 C 53.421875 38.425781 53.269531 38.425781 53.175781 38.523438 C 53.078125 38.617188 53.078125 38.773438 53.175781 38.867188 C 53.269531 38.960938 53.421875 38.960938 53.519531 38.867188 C 53.613281 38.773438 53.613281 38.617188 53.519531 38.523438 Z M 30.945312 11.953125 L 53.761719 34.769531 C 52.832031 35.699219 52.832031 37.210938 53.761719 38.140625 C 54.691406 39.070312 56.203125 39.070312 57.132812 38.140625 L 65.824219 46.832031 L 65.785156 46.871094 C 65.542969 46.632812 65.15625 46.632812 64.914062 46.871094 C 64.675781 47.113281 64.675781 47.5 64.914062 47.742188 L 64.289062 48.367188 C 64.050781 48.125 63.660156 48.125 63.417969 48.367188 C 63.179688 48.605469 63.179688 48.996094 63.417969 49.238281 L 62.792969 49.863281 C 62.554688 49.621094 62.164062 49.621094 61.925781 49.863281 C 61.683594 50.101562 61.683594 50.492188 61.925781 50.730469 L 61.300781 51.355469 C 61.058594 51.117188 60.671875 51.117188 60.429688 51.355469 C 60.191406 51.597656 60.191406 51.984375 60.429688 52.226562 L 59.804688 52.851562 C 59.566406 52.609375 59.175781 52.609375 58.933594 52.851562 C 58.695312 53.089844 58.695312 53.480469 58.933594 53.722656 L 58.308594 54.347656 C 58.070312 54.105469 57.679688 54.105469 57.441406 54.347656 C 57.199219 54.585938 57.199219 54.976562 57.441406 55.214844 L 56.816406 55.839844 C 56.574219 55.601562 56.1875 55.601562 55.945312 55.839844 C 55.707031 56.082031 55.707031 56.46875 55.945312 56.710938 L 55.320312 57.335938 C 55.082031 57.09375 54.691406 57.09375 54.449219 57.335938 C 54.210938 57.574219 54.210938 57.964844 54.449219 58.207031 L 53.824219 58.832031 C 53.585938 58.589844 53.195312 58.589844 52.957031 58.832031 C 52.714844 59.070312 52.714844 59.460938 52.957031 59.699219 L 52.332031 60.324219 C 52.089844 60.085938 51.703125 60.085938 51.460938 60.324219 C 51.222656 60.566406 51.222656 60.953125 51.460938 61.195312 L 50.835938 61.820312 C 50.597656 61.582031 50.207031 61.582031 49.964844 61.820312 C 49.726562 62.058594 49.726562 62.449219 49.964844 62.691406 L 49.339844 63.316406 C 49.101562 63.074219 48.710938 63.074219 48.472656 63.316406 C 48.230469 63.554688 48.230469 63.945312 48.472656 64.183594 L 48.429688 64.226562 L 39.738281 55.53125 C 40.667969 54.601562 40.667969 53.09375 39.738281 52.164062 C 38.808594 51.234375 37.300781 51.234375 36.371094 52.164062 L 13.550781 29.34375 L 13.59375 29.304688 C 13.832031 29.546875 14.222656 29.546875 14.460938 29.304688 C 14.703125 29.066406 14.703125 28.675781 14.460938 28.4375 L 15.085938 27.8125 C 15.328125 28.050781 15.714844 28.050781 15.957031 27.8125 C 16.195312 27.570312 16.195312 27.179688 15.957031 26.941406 L 16.582031 26.316406 C 16.820312 26.554688 17.210938 26.554688 17.453125 26.316406 C 17.691406 26.074219 17.691406 25.6875 17.453125 25.445312 L 18.078125 24.820312 C 18.316406 25.0625 18.707031 25.0625 18.945312 24.820312 C 19.1875 24.582031 19.1875 24.191406 18.945312 23.953125 L 19.570312 23.328125 C 19.8125 23.566406 20.203125 23.566406 20.441406 23.328125 C 20.679688 23.085938 20.679688 22.695312 20.441406 22.457031 L 21.066406 21.832031 C 21.304688 22.070312 21.695312 22.070312 21.9375 21.832031 C 22.175781 21.589844 22.175781 21.203125 21.9375 20.960938 L 22.5625 20.335938 C 22.800781 20.578125 23.191406 20.578125 23.429688 20.335938 C 23.671875 20.097656 23.671875 19.707031 23.429688 19.46875 L 24.054688 18.839844 C 24.296875 19.082031 24.6875 19.082031 24.925781 18.839844 C 25.164062 18.601562 25.164062 18.210938 24.925781 17.972656 L 25.550781 17.347656 C 25.789062 17.585938 26.179688 17.585938 26.421875 17.347656 C 26.660156 17.105469 26.660156 16.71875 26.421875 16.476562 L 27.046875 15.851562 C 27.285156 16.09375 27.675781 16.09375 27.914062 15.851562 C 28.15625 15.613281 28.15625 15.222656 27.914062 14.980469 L 28.539062 14.355469 C 28.78125 14.597656 29.171875 14.597656 29.410156 14.355469 C 29.648438 14.117188 29.648438 13.726562 29.410156 13.488281 L 30.035156 12.863281 C 30.277344 13.101562 30.664062 13.101562 30.90625 12.863281 C 31.144531 12.621094 31.144531 12.234375 30.90625 11.992188 Z M 30.945312 11.953125 "/></g></g></g><g clip-rule="nonzero" clip-path="url(#95de084be4)"><path style=" stroke:none;fill-rule:nonzero;fill:#ffffff;fill-opacity:1;" d="M 43.8125 32.421875 L 42.472656 31.03125 C 42.367188 30.921875 42.316406 30.769531 42.339844 30.625 L 42.609375 28.710938 C 42.71875 27.925781 42.195312 27.207031 41.414062 27.070312 L 39.511719 26.734375 C 39.363281 26.710938 39.234375 26.613281 39.164062 26.484375 L 38.261719 24.777344 C 37.890625 24.078125 37.039062 23.800781 36.328125 24.148438 L 34.59375 25 C 34.460938 25.0625 34.300781 25.0625 34.164062 25 L 32.429688 24.148438 C 31.71875 23.800781 30.871094 24.078125 30.5 24.777344 L 29.59375 26.484375 C 29.523438 26.617188 29.398438 26.707031 29.25 26.734375 L 27.347656 27.070312 C 26.566406 27.203125 26.042969 27.925781 26.152344 28.710938 L 26.421875 30.625 C 26.441406 30.773438 26.394531 30.921875 26.289062 31.03125 L 24.945312 32.421875 C 24.398438 32.988281 24.398438 33.878906 24.945312 34.449219 L 26.289062 35.839844 C 26.394531 35.945312 26.441406 36.097656 26.421875 36.246094 L 26.152344 38.160156 C 26.039062 38.941406 26.566406 39.664062 27.34375 39.800781 L 29.25 40.132812 C 29.394531 40.160156 29.523438 40.253906 29.59375 40.386719 L 30.5 42.09375 C 30.871094 42.792969 31.71875 43.070312 32.429688 42.71875 L 34.164062 41.871094 C 34.300781 41.804688 34.460938 41.804688 34.59375 41.871094 L 36.328125 42.71875 C 36.539062 42.824219 36.757812 42.871094 36.972656 42.871094 C 37.496094 42.871094 38 42.589844 38.261719 42.09375 L 39.164062 40.386719 C 39.234375 40.253906 39.363281 40.160156 39.511719 40.132812 L 41.414062 39.800781 C 42.195312 39.664062 42.71875 38.941406 42.609375 38.160156 L 42.339844 36.246094 C 42.316406 36.097656 42.367188 35.949219 42.472656 35.839844 L 43.8125 34.449219 C 44.363281 33.878906 44.363281 32.988281 43.8125 32.421875 Z M 43.113281 33.773438 L 41.769531 35.164062 C 41.457031 35.488281 41.3125 35.933594 41.375 36.382812 L 41.644531 38.292969 C 41.679688 38.554688 41.503906 38.796875 41.246094 38.84375 L 39.34375 39.175781 C 38.894531 39.253906 38.519531 39.53125 38.304688 39.929688 L 37.402344 41.636719 C 37.277344 41.871094 36.996094 41.960938 36.757812 41.847656 L 35.023438 40.996094 C 34.820312 40.898438 34.601562 40.847656 34.378906 40.847656 C 34.160156 40.847656 33.9375 40.898438 33.738281 40.996094 L 32.003906 41.84375 C 31.765625 41.960938 31.484375 41.871094 31.359375 41.636719 L 30.453125 39.929688 C 30.242188 39.527344 29.863281 39.253906 29.417969 39.175781 L 27.511719 38.84375 C 27.253906 38.796875 27.078125 38.554688 27.117188 38.292969 L 27.386719 36.382812 C 27.449219 35.933594 27.304688 35.488281 26.988281 35.164062 L 25.648438 33.773438 C 25.464844 33.582031 25.464844 33.285156 25.648438 33.097656 L 26.988281 31.707031 C 27.304688 31.378906 27.449219 30.9375 27.386719 30.488281 L 27.117188 28.574219 C 27.078125 28.3125 27.253906 28.074219 27.511719 28.027344 L 29.417969 27.691406 C 29.863281 27.613281 30.242188 27.339844 30.453125 26.9375 L 31.359375 25.234375 C 31.484375 25 31.765625 24.910156 32.003906 25.023438 L 33.738281 25.875 C 34.140625 26.070312 34.621094 26.070312 35.023438 25.871094 L 36.757812 25.023438 C 36.996094 24.90625 37.277344 25 37.402344 25.234375 L 38.304688 26.9375 C 38.519531 27.339844 38.894531 27.617188 39.34375 27.695312 L 41.246094 28.027344 C 41.503906 28.074219 41.679688 28.3125 41.644531 28.574219 L 41.375 30.488281 C 41.3125 30.9375 41.457031 31.382812 41.769531 31.707031 L 43.113281 33.097656 C 43.296875 33.285156 43.296875 33.582031 43.113281 33.773438 Z M 43.113281 33.773438 "/></g><path style=" stroke:none;fill-rule:nonzero;fill:#ffffff;fill-opacity:1;" d="M 37.644531 30.167969 C 37.453125 29.980469 37.148438 29.980469 36.957031 30.167969 L 31.113281 36.011719 C 30.925781 36.203125 30.925781 36.511719 31.113281 36.699219 C 31.210938 36.796875 31.335938 36.84375 31.457031 36.84375 C 31.582031 36.84375 31.707031 36.796875 31.804688 36.699219 L 37.644531 30.859375 C 37.835938 30.667969 37.835938 30.359375 37.644531 30.167969 Z M 37.644531 30.167969 "/><path style=" stroke:none;fill-rule:nonzero;fill:#ffffff;fill-opacity:1;" d="M 33.894531 31 C 33.894531 29.925781 33.019531 29.054688 31.945312 29.054688 C 30.871094 29.054688 30 29.925781 30 31 C 30 32.074219 30.871094 32.949219 31.945312 32.949219 C 33.019531 32.949219 33.894531 32.074219 33.894531 31 Z M 30.972656 31 C 30.972656 30.464844 31.410156 30.027344 31.945312 30.027344 C 32.484375 30.027344 32.921875 30.464844 32.921875 31 C 32.921875 31.539062 32.484375 31.976562 31.945312 31.976562 C 31.410156 31.976562 30.972656 31.539062 30.972656 31 Z M 30.972656 31 "/><path style=" stroke:none;fill-rule:nonzero;fill:#ffffff;fill-opacity:1;" d="M 36.8125 33.917969 C 35.738281 33.917969 34.863281 34.792969 34.863281 35.867188 C 34.863281 36.941406 35.738281 37.816406 36.8125 37.816406 C 37.886719 37.816406 38.761719 36.941406 38.761719 35.867188 C 38.761719 34.792969 37.886719 33.917969 36.8125 33.917969 Z M 36.8125 36.84375 C 36.277344 36.84375 35.839844 36.40625 35.839844 35.867188 C 35.839844 35.332031 36.277344 34.894531 36.8125 34.894531 C 37.351562 34.894531 37.789062 35.332031 37.789062 35.867188 C 37.789062 36.40625 37.351562 36.84375 36.8125 36.84375 Z M 36.8125 36.84375 "/><g clip-rule="nonzero" clip-path="url(#2f79401886)"><g clip-rule="nonzero" clip-path="url(#432e092b6b)"><g clip-rule="nonzero" clip-path="url(#e7ff780de1)"><path style=" stroke:none;fill-rule:nonzero;fill:#151515;fill-opacity:1;" d="M 14.484375 64.039062 C 14.65625 64.03125 14.917969 63.949219 15.074219 63.867188 C 15.550781 63.605469 25.316406 53.769531 25.414062 53.433594 C 25.523438 53.109375 25.289062 52.800781 24.953125 52.828125 C 24.519531 52.882812 23.347656 53.859375 20.457031 56.585938 C 18.847656 58.105469 17.097656 59.695312 16.5625 60.101562 C 15.179688 61.175781 13.753906 62.746094 13.726562 63.207031 C 13.699219 63.652344 14.089844 64.058594 14.484375 64.039062 Z M 14.484375 64.039062 "/></g></g></g><g clip-rule="nonzero" clip-path="url(#82b6726c08)"><g clip-rule="nonzero" clip-path="url(#799c381ae4)"><g clip-rule="nonzero" clip-path="url(#a514a0f015)"><path style=" stroke:none;fill-rule:nonzero;fill:#151515;fill-opacity:1;" d="M 8.839844 46.273438 C 9.113281 46.46875 9.320312 46.460938 10.59375 46.234375 C 11.117188 46.144531 12.398438 46.035156 13.429688 46 C 17.085938 45.847656 19.34375 45.683594 19.816406 45.539062 L 20.277344 45.386719 L 20.058594 45.167969 C 19.777344 44.890625 18.453125 44.734375 16.980469 44.800781 C 14.710938 44.898438 12.191406 44.855469 10.738281 44.683594 C 9.878906 44.582031 9.113281 44.574219 8.921875 44.671875 C 8.261719 44.988281 8.21875 45.828125 8.839844 46.273438 Z M 8.839844 46.273438 "/></g></g></g><g clip-rule="nonzero" clip-path="url(#82e7f44637)"><g clip-rule="nonzero" clip-path="url(#27bf8efa90)"><g clip-rule="nonzero" clip-path="url(#644143e52d)"><path style=" stroke:none;fill-rule:nonzero;fill:#151515;fill-opacity:1;" d="M 16.023438 52.207031 C 16.183594 52.1875 17.179688 51.863281 18.226562 51.484375 C 20.015625 50.832031 20.925781 50.320312 20.855469 50.011719 C 20.808594 49.785156 20.160156 49.730469 19.488281 49.875 C 19.148438 49.964844 18.179688 50.191406 17.347656 50.371094 C 15.8125 50.734375 15.253906 51.042969 15.253906 51.527344 C 15.253906 51.855469 15.6875 52.234375 16.023438 52.207031 Z M 16.023438 52.207031 "/></g></g></g><g clip-rule="nonzero" clip-path="url(#b72e05e974)"><g clip-rule="nonzero" clip-path="url(#132d3f1e18)"><g clip-rule="nonzero" clip-path="url(#2c5fcde9e4)"><path style=" stroke:none;fill-rule:nonzero;fill:#151515;fill-opacity:1;" d="M 26.101562 61.5625 C 26.679688 61.816406 27.195312 60.996094 27.539062 59.277344 C 27.65625 58.671875 27.835938 57.949219 27.925781 57.644531 C 28.160156 56.921875 28.179688 56.179688 27.972656 55.972656 C 27.816406 55.820312 27.765625 55.835938 27.566406 56.164062 C 27.292969 56.632812 26.625 58.113281 26.371094 58.800781 C 26.265625 59.089844 26.058594 59.65625 25.886719 60.066406 C 25.558594 60.914062 25.613281 61.367188 26.101562 61.5625 Z M 26.101562 61.5625 "/></g></g></g><g clip-rule="nonzero" clip-path="url(#adc8001dba)"><g clip-rule="nonzero" clip-path="url(#f675ceaa8b)"><g clip-rule="nonzero" clip-path="url(#f1ab6ce334)"><path style=" stroke:none;fill-rule:nonzero;fill:#151515;fill-opacity:1;" d="M 33.542969 68.320312 C 33.925781 68.320312 34.277344 68.113281 34.347656 67.839844 C 34.410156 67.617188 34.367188 66.957031 34.121094 64.382812 C 33.871094 61.761719 33.816406 60.589844 33.90625 59.632812 C 34.003906 58.554688 33.925781 57.625 33.6875 57.03125 C 33.507812 56.578125 33.492188 56.558594 33.335938 56.714844 C 33.265625 56.785156 33.183594 57.371094 33.15625 58.03125 C 33.128906 58.691406 33.039062 59.558594 32.957031 59.984375 C 32.875 60.390625 32.804688 61.691406 32.796875 62.875 C 32.777344 64.046875 32.722656 65.511719 32.675781 66.132812 C 32.613281 66.757812 32.613281 67.371094 32.652344 67.515625 C 32.769531 67.90625 33.230469 68.3125 33.542969 68.320312 Z M 33.542969 68.320312 "/></g></g></g><g clip-rule="nonzero" clip-path="url(#00ff2403ac)"><g clip-rule="nonzero" clip-path="url(#94704ef9ad)"><g clip-rule="nonzero" clip-path="url(#60e6a2595a)"><path style=" stroke:none;fill-rule:nonzero;fill:#151515;fill-opacity:1;" d="M 65.628906 12.894531 C 65.621094 13.066406 65.539062 13.328125 65.457031 13.480469 C 65.195312 13.960938 55.359375 23.726562 55.027344 23.824219 C 54.699219 23.933594 54.394531 23.699219 54.421875 23.363281 C 54.476562 22.929688 55.449219 21.753906 58.179688 18.867188 C 59.695312 17.257812 61.285156 15.503906 61.691406 14.972656 C 62.765625 13.589844 64.339844 12.164062 64.800781 12.136719 C 65.242188 12.109375 65.648438 12.496094 65.628906 12.894531 Z M 65.628906 12.894531 "/></g></g></g><g clip-rule="nonzero" clip-path="url(#ece9abafea)"><g clip-rule="nonzero" clip-path="url(#b4e0cdec97)"><g clip-rule="nonzero" clip-path="url(#9f29710f5e)"><path style=" stroke:none;fill-rule:nonzero;fill:#151515;fill-opacity:1;" d="M 47.863281 7.25 C 48.0625 7.519531 48.054688 7.726562 47.828125 9 C 47.738281 9.527344 47.628906 10.808594 47.59375 11.839844 C 47.4375 15.496094 47.277344 17.753906 47.132812 18.222656 L 46.976562 18.683594 L 46.761719 18.46875 C 46.480469 18.1875 46.328125 16.859375 46.390625 15.386719 C 46.488281 13.121094 46.445312 10.601562 46.273438 9.144531 C 46.175781 8.289062 46.164062 7.519531 46.265625 7.332031 C 46.582031 6.671875 47.421875 6.625 47.863281 7.25 Z M 47.863281 7.25 "/></g></g></g><g clip-rule="nonzero" clip-path="url(#80d2398357)"><g clip-rule="nonzero" clip-path="url(#188abe6663)"><g clip-rule="nonzero" clip-path="url(#6a444f9ac7)"><path style=" stroke:none;fill-rule:nonzero;fill:#151515;fill-opacity:1;" d="M 53.796875 14.429688 C 53.78125 14.59375 53.453125 15.585938 53.074219 16.632812 C 52.425781 18.421875 51.910156 19.335938 51.601562 19.261719 C 51.375 19.21875 51.324219 18.566406 51.46875 17.898438 C 51.558594 17.554688 51.785156 16.589844 51.964844 15.757812 C 52.324219 14.222656 52.632812 13.664062 53.121094 13.664062 C 53.445312 13.664062 53.824219 14.097656 53.796875 14.429688 Z M 53.796875 14.429688 "/></g></g></g><g clip-rule="nonzero" clip-path="url(#e4aab6f170)"><g clip-rule="nonzero" clip-path="url(#a816cc16b8)"><g clip-rule="nonzero" clip-path="url(#72d373c7aa)"><path style=" stroke:none;fill-rule:nonzero;fill:#151515;fill-opacity:1;" d="M 63.15625 24.511719 C 63.40625 25.089844 62.585938 25.605469 60.871094 25.945312 C 60.265625 26.0625 59.542969 26.246094 59.234375 26.335938 C 58.511719 26.570312 57.773438 26.589844 57.5625 26.378906 C 57.410156 26.226562 57.429688 26.171875 57.753906 25.972656 C 58.222656 25.703125 59.703125 25.035156 60.390625 24.78125 C 60.679688 24.671875 61.25 24.464844 61.65625 24.292969 C 62.503906 23.96875 62.957031 24.023438 63.15625 24.511719 Z M 63.15625 24.511719 "/></g></g></g><g clip-rule="nonzero" clip-path="url(#195b09e1ba)"><g clip-rule="nonzero" clip-path="url(#ded60f18ce)"><g clip-rule="nonzero" clip-path="url(#84de6f83f0)"><path style=" stroke:none;fill-rule:nonzero;fill:#151515;fill-opacity:1;" d="M 69.910156 31.953125 C 69.910156 32.332031 69.703125 32.683594 69.433594 32.757812 C 69.207031 32.820312 68.546875 32.777344 65.972656 32.53125 C 63.355469 32.277344 62.179688 32.222656 61.222656 32.316406 C 60.148438 32.414062 59.21875 32.332031 58.621094 32.097656 C 58.167969 31.917969 58.152344 31.898438 58.304688 31.746094 C 58.378906 31.671875 58.964844 31.59375 59.625 31.566406 C 60.28125 31.539062 61.148438 31.449219 61.574219 31.367188 C 61.980469 31.285156 63.28125 31.210938 64.464844 31.203125 C 65.640625 31.1875 67.101562 31.132812 67.726562 31.085938 C 68.347656 31.023438 68.964844 31.023438 69.109375 31.058594 C 69.496094 31.175781 69.902344 31.636719 69.910156 31.953125 Z M 69.910156 31.953125 "/></g></g></g></g></svg>