<svg xmlns="http://www.w3.org/2000/svg" xmlns:xlink="http://www.w3.org/1999/xlink" width="474" zoomAndPan="magnify" viewBox="0 0 355.5 173.249993" height="231" preserveAspectRatio="xMidYMid meet" version="1.2"><defs><clipPath id="f50ded0c59"><path d="M 23 36 L 123 36 L 123 136 L 23 136 Z M 23 36 "/></clipPath><clipPath id="b1b7b88c54"><path d="M 56.339844 36.175781 L 122.851562 102.6875 L 89.59375 135.941406 L 23.085938 69.429688 Z M 56.339844 36.175781 "/></clipPath><clipPath id="a548eb83bd"><path d="M 56.339844 36.175781 L 122.851562 102.6875 L 89.59375 135.941406 L 23.085938 69.429688 Z M 56.339844 36.175781 "/></clipPath><clipPath id="b47399ce86"><path d="M 44 59 L 82 59 L 82 95.464844 L 44 95.464844 Z M 44 59 "/></clipPath><clipPath id="d846c07e00"><path d="M 23 114 L 46 114 L 46 136 L 23 136 Z M 23 114 "/></clipPath><clipPath id="ff2e3eaee7"><path d="M 47.378906 158.503906 L 0.488281 111.613281 L 26.09375 86.007812 L 72.984375 132.898438 Z M 47.378906 158.503906 "/></clipPath><clipPath id="c31aa79b52"><path d="M 47.378906 158.503906 L 0.488281 111.613281 L 26.09375 86.007812 L 72.984375 132.898438 Z M 47.378906 158.503906 "/></clipPath><clipPath id="6822ba4b8e"><path d="M 13 98 L 37 98 L 37 102 L 13 102 Z M 13 98 "/></clipPath><clipPath id="869f0fca1c"><path d="M 47.378906 158.503906 L 0.488281 111.613281 L 26.09375 86.007812 L 72.984375 132.898438 Z M 47.378906 158.503906 "/></clipPath><clipPath id="05ee6465ca"><path d="M 47.378906 158.503906 L 0.488281 111.613281 L 26.09375 86.007812 L 72.984375 132.898438 Z M 47.378906 158.503906 "/></clipPath><clipPath id="bd22c75319"><path d="M 26 108 L 38 108 L 38 113 L 26 113 Z M 26 108 "/></clipPath><clipPath id="840341aec0"><path d="M 47.378906 158.503906 L 0.488281 111.613281 L 26.09375 86.007812 L 72.984375 132.898438 Z M 47.378906 158.503906 "/></clipPath><clipPath id="968a1df910"><path d="M 47.378906 158.503906 L 0.488281 111.613281 L 26.09375 86.007812 L 72.984375 132.898438 Z M 47.378906 158.503906 "/></clipPath><clipPath id="6856f7a637"><path d="M 46 119 L 52 119 L 52 131 L 46 131 Z M 46 119 "/></clipPath><clipPath id="60f983909f"><path d="M 47.378906 158.503906 L 0.488281 111.613281 L 26.09375 86.007812 L 72.984375 132.898438 Z M 47.378906 158.503906 "/></clipPath><clipPath id="56a5e79253"><path d="M 47.378906 158.503906 L 0.488281 111.613281 L 26.09375 86.007812 L 72.984375 132.898438 Z M 47.378906 158.503906 "/></clipPath><clipPath id="091fc6530f"><path d="M 59 121 L 63 121 L 63 144 L 59 144 Z M 59 121 "/></clipPath><clipPath id="6ae91156fd"><path d="M 47.378906 158.503906 L 0.488281 111.613281 L 26.09375 86.007812 L 72.984375 132.898438 Z M 47.378906 158.503906 "/></clipPath><clipPath id="41c966f9cb"><path d="M 47.378906 158.503906 L 0.488281 111.613281 L 26.09375 86.007812 L 72.984375 132.898438 Z M 47.378906 158.503906 "/></clipPath><clipPath id="41ebf00c3b"><path d="M 101 36 L 123 36 L 123 59 L 101 59 Z M 101 36 "/></clipPath><clipPath id="390d63342b"><path d="M 119.898438 85.984375 L 73.007812 39.09375 L 98.613281 13.488281 L 145.503906 60.375 Z M 119.898438 85.984375 "/></clipPath><clipPath id="343cfce23e"><path d="M 145.550781 60.328125 L 98.660156 13.441406 L 73.054688 39.046875 L 119.945312 85.9375 Z M 145.550781 60.328125 "/></clipPath><clipPath id="320d5f8f5e"><path d="M 85 26 L 89 26 L 89 50 L 85 50 Z M 85 26 "/></clipPath><clipPath id="80ad170d7d"><path d="M 119.898438 85.984375 L 73.007812 39.09375 L 98.613281 13.488281 L 145.503906 60.375 Z M 119.898438 85.984375 "/></clipPath><clipPath id="c3c5ddee24"><path d="M 145.550781 60.328125 L 98.660156 13.441406 L 73.054688 39.046875 L 119.945312 85.9375 Z M 145.550781 60.328125 "/></clipPath><clipPath id="445304541f"><path d="M 95 39 L 100 39 L 100 51 L 95 51 Z M 95 39 "/></clipPath><clipPath id="63eb330df2"><path d="M 119.898438 85.984375 L 73.007812 39.09375 L 98.613281 13.488281 L 145.503906 60.375 Z M 119.898438 85.984375 "/></clipPath><clipPath id="54cfa71e12"><path d="M 145.550781 60.328125 L 98.660156 13.441406 L 73.054688 39.046875 L 119.945312 85.9375 Z M 145.550781 60.328125 "/></clipPath><clipPath id="3a19967cfe"><path d="M 106 59 L 118 59 L 118 64 L 106 64 Z M 106 59 "/></clipPath><clipPath id="e9d4287418"><path d="M 119.898438 85.984375 L 73.007812 39.09375 L 98.613281 13.488281 L 145.503906 60.375 Z M 119.898438 85.984375 "/></clipPath><clipPath id="b6a2c36f65"><path d="M 145.550781 60.328125 L 98.660156 13.441406 L 73.054688 39.046875 L 119.945312 85.9375 Z M 145.550781 60.328125 "/></clipPath><clipPath id="0172f8aa59"><path d="M 108 72 L 131 72 L 131 76 L 108 76 Z M 108 72 "/></clipPath><clipPath id="610f6d0a5e"><path d="M 119.898438 85.984375 L 73.007812 39.09375 L 98.613281 13.488281 L 145.503906 60.375 Z M 119.898438 85.984375 "/></clipPath><clipPath id="052d17be07"><path d="M 145.550781 60.328125 L 98.660156 13.441406 L 73.054688 39.046875 L 119.945312 85.9375 Z M 145.550781 60.328125 "/></clipPath></defs><g id="441a25d408"><g style="fill:#ffffff;fill-opacity:1;"><g transform="translate(141.591225, 53.525817)"><path style="stroke:none" d="M 2.078125 -36.234375 L 11.078125 -36.234375 C 13.941406 -36.234375 16.070312 -35.472656 17.46875 -33.953125 C 18.863281 -32.441406 19.5625 -30.21875 19.5625 -27.28125 L 19.5625 -8.953125 C 19.5625 -6.023438 18.863281 -3.800781 17.46875 -2.28125 C 16.070312 -0.757812 13.941406 0 11.078125 0 L 2.078125 0 Z M 7.765625 -31.0625 L 7.765625 -5.171875 L 10.96875 -5.171875 C 11.863281 -5.171875 12.570312 -5.429688 13.09375 -5.953125 C 13.613281 -6.472656 13.875 -7.390625 13.875 -8.703125 L 13.875 -27.546875 C 13.875 -28.847656 13.613281 -29.757812 13.09375 -30.28125 C 12.570312 -30.800781 11.863281 -31.0625 10.96875 -31.0625 Z M 7.765625 -31.0625 "/></g></g><g style="fill:#ffffff;fill-opacity:1;"><g transform="translate(162.710479, 53.525817)"><path style="stroke:none" d="M 7.765625 -20.96875 L 15.578125 -20.96875 L 15.578125 -15.78125 L 7.765625 -15.78125 L 7.765625 -5.171875 L 17.59375 -5.171875 L 17.59375 0 L 2.078125 0 L 2.078125 -36.234375 L 17.59375 -36.234375 L 17.59375 -31.0625 L 7.765625 -31.0625 Z M 7.765625 -20.96875 "/></g></g><g style="fill:#ffffff;fill-opacity:1;"><g transform="translate(181.759205, 53.525817)"><path style="stroke:none" d="M 1.34375 -27.546875 C 1.34375 -30.472656 2.039062 -32.722656 3.4375 -34.296875 C 4.832031 -35.867188 6.929688 -36.65625 9.734375 -36.65625 C 12.523438 -36.65625 14.617188 -35.867188 16.015625 -34.296875 C 17.421875 -32.722656 18.125 -30.472656 18.125 -27.546875 L 18.125 -26.140625 L 12.734375 -26.140625 L 12.734375 -27.90625 C 12.734375 -29.21875 12.484375 -30.140625 11.984375 -30.671875 C 11.484375 -31.203125 10.785156 -31.46875 9.890625 -31.46875 C 8.992188 -31.46875 8.296875 -31.203125 7.796875 -30.671875 C 7.296875 -30.140625 7.046875 -29.21875 7.046875 -27.90625 C 7.046875 -26.65625 7.320312 -25.554688 7.875 -24.609375 C 8.425781 -23.660156 9.113281 -22.765625 9.9375 -21.921875 C 10.769531 -21.078125 11.660156 -20.234375 12.609375 -19.390625 C 13.554688 -18.546875 14.441406 -17.617188 15.265625 -16.609375 C 16.097656 -15.609375 16.789062 -14.46875 17.34375 -13.1875 C 17.894531 -11.914062 18.171875 -10.421875 18.171875 -8.703125 C 18.171875 -5.765625 17.453125 -3.507812 16.015625 -1.9375 C 14.585938 -0.363281 12.476562 0.421875 9.6875 0.421875 C 6.882812 0.421875 4.765625 -0.363281 3.328125 -1.9375 C 1.898438 -3.507812 1.1875 -5.765625 1.1875 -8.703125 L 1.1875 -11.1875 L 6.578125 -11.1875 L 6.578125 -8.328125 C 6.578125 -7.015625 6.84375 -6.097656 7.375 -5.578125 C 7.90625 -5.066406 8.625 -4.8125 9.53125 -4.8125 C 10.425781 -4.8125 11.140625 -5.066406 11.671875 -5.578125 C 12.203125 -6.097656 12.46875 -7.015625 12.46875 -8.328125 C 12.46875 -9.578125 12.191406 -10.675781 11.640625 -11.625 C 11.085938 -12.570312 10.394531 -13.46875 9.5625 -14.3125 C 8.738281 -15.15625 7.851562 -16 6.90625 -16.84375 C 5.957031 -17.695312 5.066406 -18.625 4.234375 -19.625 C 3.410156 -20.625 2.722656 -21.757812 2.171875 -23.03125 C 1.617188 -24.3125 1.34375 -25.816406 1.34375 -27.546875 Z M 1.34375 -27.546875 "/></g></g><g style="fill:#ffffff;fill-opacity:1;"><g transform="translate(201.118515, 53.525817)"><path style="stroke:none" d="M 18.578125 -13.515625 L 18.578125 -8.703125 C 18.578125 -5.765625 17.859375 -3.507812 16.421875 -1.9375 C 14.992188 -0.363281 12.882812 0.421875 10.09375 0.421875 C 7.300781 0.421875 5.1875 -0.363281 3.75 -1.9375 C 2.320312 -3.507812 1.609375 -5.765625 1.609375 -8.703125 L 1.609375 -27.546875 C 1.609375 -30.472656 2.320312 -32.722656 3.75 -34.296875 C 5.1875 -35.867188 7.300781 -36.65625 10.09375 -36.65625 C 12.882812 -36.65625 14.992188 -35.867188 16.421875 -34.296875 C 17.859375 -32.722656 18.578125 -30.472656 18.578125 -27.546875 L 18.578125 -24.015625 L 13.203125 -24.015625 L 13.203125 -27.90625 C 13.203125 -29.21875 12.929688 -30.140625 12.390625 -30.671875 C 11.859375 -31.203125 11.144531 -31.46875 10.25 -31.46875 C 9.351562 -31.46875 8.632812 -31.203125 8.09375 -30.671875 C 7.5625 -30.140625 7.296875 -29.21875 7.296875 -27.90625 L 7.296875 -8.328125 C 7.296875 -7.015625 7.5625 -6.097656 8.09375 -5.578125 C 8.632812 -5.066406 9.351562 -4.8125 10.25 -4.8125 C 11.144531 -4.8125 11.859375 -5.066406 12.390625 -5.578125 C 12.929688 -6.097656 13.203125 -7.015625 13.203125 -8.328125 L 13.203125 -13.515625 Z M 18.578125 -13.515625 "/></g></g><g style="fill:#ffffff;fill-opacity:1;"><g transform="translate(221.098973, 53.525817)"><path style="stroke:none" d="M 7.296875 -8.328125 C 7.296875 -7.015625 7.5625 -6.09375 8.09375 -5.5625 C 8.632812 -5.03125 9.351562 -4.765625 10.25 -4.765625 C 11.144531 -4.765625 11.859375 -5.03125 12.390625 -5.5625 C 12.929688 -6.09375 13.203125 -7.015625 13.203125 -8.328125 L 13.203125 -27.90625 C 13.203125 -29.21875 12.929688 -30.140625 12.390625 -30.671875 C 11.859375 -31.203125 11.144531 -31.46875 10.25 -31.46875 C 9.351562 -31.46875 8.632812 -31.203125 8.09375 -30.671875 C 7.5625 -30.140625 7.296875 -29.21875 7.296875 -27.90625 Z M 1.609375 -27.546875 C 1.609375 -30.472656 2.347656 -32.722656 3.828125 -34.296875 C 5.316406 -35.867188 7.457031 -36.65625 10.25 -36.65625 C 13.039062 -36.65625 15.175781 -35.867188 16.65625 -34.296875 C 18.144531 -32.722656 18.890625 -30.472656 18.890625 -27.546875 L 18.890625 -8.703125 C 18.890625 -5.765625 18.144531 -3.507812 16.65625 -1.9375 C 15.175781 -0.363281 13.039062 0.421875 10.25 0.421875 C 7.457031 0.421875 5.316406 -0.363281 3.828125 -1.9375 C 2.347656 -3.507812 1.609375 -5.765625 1.609375 -8.703125 Z M 1.609375 -27.546875 "/></g></g><g style="fill:#ffffff;fill-opacity:1;"><g transform="translate(241.597057, 53.525817)"><path style="stroke:none" d="M 7.140625 -26.25 L 7.140625 0 L 2.015625 0 L 2.015625 -36.234375 L 9.15625 -36.234375 L 15.015625 -14.546875 L 15.015625 -36.234375 L 20.078125 -36.234375 L 20.078125 0 L 14.234375 0 Z M 7.140625 -26.25 "/></g></g><g style="fill:#ffffff;fill-opacity:1;"><g transform="translate(263.699804, 53.525817)"><path style="stroke:none" d="M 0.515625 -36.234375 L 18.125 -36.234375 L 18.125 -31.0625 L 12.171875 -31.0625 L 12.171875 0 L 6.46875 0 L 6.46875 -31.0625 L 0.515625 -31.0625 Z M 0.515625 -36.234375 "/></g></g><g style="fill:#ffffff;fill-opacity:1;"><g transform="translate(282.334424, 53.525817)"><path style="stroke:none" d="M 7.296875 -8.328125 C 7.296875 -7.015625 7.5625 -6.09375 8.09375 -5.5625 C 8.632812 -5.03125 9.351562 -4.765625 10.25 -4.765625 C 11.144531 -4.765625 11.859375 -5.03125 12.390625 -5.5625 C 12.929688 -6.09375 13.203125 -7.015625 13.203125 -8.328125 L 13.203125 -27.90625 C 13.203125 -29.21875 12.929688 -30.140625 12.390625 -30.671875 C 11.859375 -31.203125 11.144531 -31.46875 10.25 -31.46875 C 9.351562 -31.46875 8.632812 -31.203125 8.09375 -30.671875 C 7.5625 -30.140625 7.296875 -29.21875 7.296875 -27.90625 Z M 1.609375 -27.546875 C 1.609375 -30.472656 2.347656 -32.722656 3.828125 -34.296875 C 5.316406 -35.867188 7.457031 -36.65625 10.25 -36.65625 C 13.039062 -36.65625 15.175781 -35.867188 16.65625 -34.296875 C 18.144531 -32.722656 18.890625 -30.472656 18.890625 -27.546875 L 18.890625 -8.703125 C 18.890625 -5.765625 18.144531 -3.507812 16.65625 -1.9375 C 15.175781 -0.363281 13.039062 0.421875 10.25 0.421875 C 7.457031 0.421875 5.316406 -0.363281 3.828125 -1.9375 C 2.347656 -3.507812 1.609375 -5.765625 1.609375 -8.703125 Z M 1.609375 -27.546875 "/></g></g><g style="fill:#ffffff;fill-opacity:1;"><g transform="translate(141.591225, 98.254594)"><path style="stroke:none" d="M 7.140625 -26.25 L 7.140625 0 L 2.015625 0 L 2.015625 -36.234375 L 9.15625 -36.234375 L 15.015625 -14.546875 L 15.015625 -36.234375 L 20.078125 -36.234375 L 20.078125 0 L 14.234375 0 Z M 7.140625 -26.25 "/></g></g><g style="fill:#ffffff;fill-opacity:1;"><g transform="translate(163.693972, 98.254594)"><path style="stroke:none" d="M 20.5 0 L 14.75 0 L 13.765625 -6.578125 L 6.78125 -6.578125 L 5.796875 0 L 0.5625 0 L 6.359375 -36.234375 L 14.703125 -36.234375 Z M 7.5 -11.484375 L 13 -11.484375 L 10.25 -29.8125 Z M 7.5 -11.484375 "/></g></g><g style="fill:#ffffff;fill-opacity:1;"><g transform="translate(141.591225, 142.983371)"><path style="stroke:none" d="M 14.125 -10.515625 L 18.015625 -36.234375 L 25.9375 -36.234375 L 25.9375 0 L 20.546875 0 L 20.546875 -25.984375 L 16.609375 0 L 11.234375 0 L 6.984375 -25.625 L 6.984375 0 L 2.015625 0 L 2.015625 -36.234375 L 9.9375 -36.234375 Z M 14.125 -10.515625 "/></g></g><g style="fill:#ffffff;fill-opacity:1;"><g transform="translate(169.594927, 142.983371)"><path style="stroke:none" d="M 20.5 0 L 14.75 0 L 13.765625 -6.578125 L 6.78125 -6.578125 L 5.796875 0 L 0.5625 0 L 6.359375 -36.234375 L 14.703125 -36.234375 Z M 7.5 -11.484375 L 13 -11.484375 L 10.25 -29.8125 Z M 7.5 -11.484375 "/></g></g><g style="fill:#ffffff;fill-opacity:1;"><g transform="translate(190.662421, 142.983371)"><path style="stroke:none" d="M 1.609375 -27.546875 C 1.609375 -30.472656 2.347656 -32.722656 3.828125 -34.296875 C 5.316406 -35.867188 7.457031 -36.65625 10.25 -36.65625 C 13.039062 -36.65625 15.175781 -35.867188 16.65625 -34.296875 C 18.144531 -32.722656 18.890625 -30.472656 18.890625 -27.546875 L 18.890625 -8.703125 C 18.890625 -6.660156 18.53125 -4.96875 17.8125 -3.625 C 17.945312 -3.28125 18.125 -3.0625 18.34375 -2.96875 C 18.570312 -2.882812 18.925781 -2.84375 19.40625 -2.84375 L 19.9375 -2.84375 L 19.9375 2.21875 L 19.15625 2.21875 C 17.875 2.21875 16.828125 2.003906 16.015625 1.578125 C 15.210938 1.148438 14.617188 0.535156 14.234375 -0.265625 C 13.648438 -0.0546875 13.03125 0.109375 12.375 0.234375 C 11.71875 0.359375 11.007812 0.421875 10.25 0.421875 C 7.457031 0.421875 5.316406 -0.363281 3.828125 -1.9375 C 2.347656 -3.507812 1.609375 -5.765625 1.609375 -8.703125 Z M 7.296875 -8.328125 C 7.296875 -7.015625 7.5625 -6.09375 8.09375 -5.5625 C 8.632812 -5.03125 9.351562 -4.765625 10.25 -4.765625 C 11.144531 -4.765625 11.859375 -5.03125 12.390625 -5.5625 C 12.929688 -6.09375 13.203125 -7.015625 13.203125 -8.328125 L 13.203125 -27.90625 C 13.203125 -29.21875 12.929688 -30.140625 12.390625 -30.671875 C 11.859375 -31.203125 11.144531 -31.46875 10.25 -31.46875 C 9.351562 -31.46875 8.632812 -31.203125 8.09375 -30.671875 C 7.5625 -30.140625 7.296875 -29.21875 7.296875 -27.90625 Z M 7.296875 -8.328125 "/></g></g><g style="fill:#ffffff;fill-opacity:1;"><g transform="translate(211.160505, 142.983371)"><path style="stroke:none" d="M 7.5 -36.234375 L 7.5 -8.28125 C 7.5 -6.96875 7.765625 -6.050781 8.296875 -5.53125 C 8.835938 -5.019531 9.554688 -4.765625 10.453125 -4.765625 C 11.347656 -4.765625 12.0625 -5.019531 12.59375 -5.53125 C 13.132812 -6.050781 13.40625 -6.96875 13.40625 -8.28125 L 13.40625 -36.234375 L 18.796875 -36.234375 L 18.796875 -8.640625 C 18.796875 -5.710938 18.078125 -3.460938 16.640625 -1.890625 C 15.210938 -0.316406 13.097656 0.46875 10.296875 0.46875 C 7.503906 0.46875 5.390625 -0.316406 3.953125 -1.890625 C 2.523438 -3.460938 1.8125 -5.710938 1.8125 -8.640625 L 1.8125 -36.234375 Z M 7.5 -36.234375 "/></g></g><g style="fill:#ffffff;fill-opacity:1;"><g transform="translate(231.762132, 142.983371)"><path style="stroke:none" d="M 2.078125 -36.234375 L 7.765625 -36.234375 L 7.765625 0 L 2.078125 0 Z M 2.078125 -36.234375 "/></g></g><g style="fill:#ffffff;fill-opacity:1;"><g transform="translate(241.59708, 142.983371)"><path style="stroke:none" d="M 7.140625 -26.25 L 7.140625 0 L 2.015625 0 L 2.015625 -36.234375 L 9.15625 -36.234375 L 15.015625 -14.546875 L 15.015625 -36.234375 L 20.078125 -36.234375 L 20.078125 0 L 14.234375 0 Z M 7.140625 -26.25 "/></g></g><g style="fill:#ffffff;fill-opacity:1;"><g transform="translate(263.699826, 142.983371)"><path style="stroke:none" d="M 2.078125 -36.234375 L 7.765625 -36.234375 L 7.765625 0 L 2.078125 0 Z M 2.078125 -36.234375 "/></g></g><g style="fill:#ffffff;fill-opacity:1;"><g transform="translate(273.534774, 142.983371)"><path style="stroke:none" d="M 7.140625 -26.25 L 7.140625 0 L 2.015625 0 L 2.015625 -36.234375 L 9.15625 -36.234375 L 15.015625 -14.546875 L 15.015625 -36.234375 L 20.078125 -36.234375 L 20.078125 0 L 14.234375 0 Z M 7.140625 -26.25 "/></g></g><g style="fill:#ffffff;fill-opacity:1;"><g transform="translate(295.63752, 142.983371)"><path style="stroke:none" d="M 7.765625 0 L 2.078125 0 L 2.078125 -36.234375 L 7.765625 -36.234375 L 7.765625 -20.703125 L 14.234375 -20.703125 L 14.234375 -36.234375 L 20.03125 -36.234375 L 20.03125 0 L 14.234375 0 L 14.234375 -15.53125 L 7.765625 -15.53125 Z M 7.765625 0 "/></g></g><g style="fill:#ffffff;fill-opacity:1;"><g transform="translate(317.740266, 142.983371)"><path style="stroke:none" d="M 20.5 0 L 14.75 0 L 13.765625 -6.578125 L 6.78125 -6.578125 L 5.796875 0 L 0.5625 0 L 6.359375 -36.234375 L 14.703125 -36.234375 Z M 7.5 -11.484375 L 13 -11.484375 L 10.25 -29.8125 Z M 7.5 -11.484375 "/></g></g><g clip-rule="nonzero" clip-path="url(#f50ded0c59)"><g clip-rule="nonzero" clip-path="url(#b1b7b88c54)"><g clip-rule="nonzero" clip-path="url(#a548eb83bd)"><path style=" stroke:none;fill-rule:evenodd;fill:#151515;fill-opacity:1;" d="M 85.828125 100.351562 C 85.648438 100.171875 85.355469 100.171875 85.171875 100.355469 C 84.992188 100.535156 84.992188 100.828125 85.171875 101.011719 C 85.355469 101.191406 85.648438 101.191406 85.828125 101.011719 C 86.011719 100.828125 86.011719 100.535156 85.828125 100.351562 M 84.703125 101.480469 C 84.519531 101.300781 84.226562 101.300781 84.046875 101.480469 C 83.863281 101.664062 83.863281 101.957031 84.046875 102.136719 C 84.226562 102.316406 84.519531 102.316406 84.703125 102.136719 C 84.882812 101.957031 84.882812 101.664062 84.703125 101.480469 Z M 83.574219 102.609375 C 83.390625 102.429688 83.097656 102.429688 82.917969 102.609375 C 82.738281 102.789062 82.738281 103.085938 82.917969 103.265625 C 83.097656 103.445312 83.390625 103.445312 83.574219 103.265625 C 83.753906 103.085938 83.753906 102.789062 83.574219 102.609375 Z M 82.445312 103.738281 C 82.261719 103.558594 81.96875 103.558594 81.789062 103.738281 C 81.605469 103.921875 81.605469 104.214844 81.789062 104.394531 C 81.96875 104.574219 82.261719 104.574219 82.445312 104.394531 C 82.625 104.214844 82.625 103.921875 82.445312 103.738281 Z M 81.316406 104.867188 C 81.132812 104.6875 80.839844 104.6875 80.660156 104.867188 C 80.480469 105.046875 80.480469 105.34375 80.660156 105.523438 C 80.839844 105.703125 81.132812 105.703125 81.316406 105.523438 C 81.496094 105.34375 81.496094 105.046875 81.316406 104.867188 Z M 80.1875 105.996094 C 80.007812 105.816406 79.710938 105.816406 79.53125 105.996094 C 79.351562 106.175781 79.351562 106.46875 79.53125 106.652344 C 79.710938 106.832031 80.007812 106.832031 80.1875 106.652344 C 80.367188 106.472656 80.367188 106.175781 80.1875 105.996094 Z M 79.058594 107.125 C 78.875 106.945312 78.582031 106.945312 78.402344 107.125 C 78.222656 107.308594 78.222656 107.601562 78.402344 107.78125 C 78.582031 107.960938 78.875 107.960938 79.058594 107.78125 C 79.238281 107.601562 79.238281 107.308594 79.058594 107.125 Z M 77.929688 108.253906 C 77.75 108.074219 77.453125 108.074219 77.273438 108.253906 C 77.09375 108.433594 77.09375 108.726562 77.273438 108.910156 C 77.453125 109.089844 77.75 109.089844 77.929688 108.910156 C 78.109375 108.726562 78.109375 108.433594 77.929688 108.253906 Z M 76.800781 109.382812 C 76.621094 109.199219 76.328125 109.199219 76.144531 109.382812 C 75.964844 109.5625 75.964844 109.855469 76.144531 110.039062 C 76.328125 110.21875 76.621094 110.21875 76.800781 110.039062 C 76.980469 109.855469 76.980469 109.5625 76.800781 109.382812 Z M 75.671875 110.511719 C 75.492188 110.328125 75.199219 110.328125 75.015625 110.511719 C 74.835938 110.691406 74.835938 110.984375 75.015625 111.164062 C 75.199219 111.347656 75.492188 111.347656 75.671875 111.164062 C 75.851562 110.984375 75.855469 110.691406 75.671875 110.511719 Z M 74.542969 111.640625 C 74.363281 111.460938 74.070312 111.460938 73.886719 111.640625 C 73.707031 111.820312 73.707031 112.113281 73.886719 112.296875 C 74.070312 112.476562 74.363281 112.476562 74.542969 112.296875 C 74.722656 112.113281 74.722656 111.820312 74.542969 111.640625 Z M 98.246094 87.9375 C 98.0625 87.757812 97.769531 87.757812 97.589844 87.9375 C 97.410156 88.117188 97.410156 88.414062 97.589844 88.59375 C 97.769531 88.773438 98.0625 88.773438 98.246094 88.59375 C 98.425781 88.414062 98.425781 88.117188 98.246094 87.9375 Z M 97.117188 89.066406 C 96.9375 88.886719 96.640625 88.886719 96.460938 89.066406 C 96.28125 89.246094 96.28125 89.539062 96.460938 89.722656 C 96.640625 89.902344 96.9375 89.902344 97.117188 89.722656 C 97.296875 89.539062 97.296875 89.246094 97.117188 89.066406 Z M 95.988281 90.195312 C 95.808594 90.011719 95.515625 90.011719 95.332031 90.195312 C 95.152344 90.375 95.152344 90.667969 95.332031 90.851562 C 95.515625 91.03125 95.808594 91.03125 95.988281 90.851562 C 96.167969 90.667969 96.167969 90.375 95.988281 90.195312 Z M 94.859375 91.324219 C 94.679688 91.144531 94.382812 91.144531 94.203125 91.324219 C 94.023438 91.503906 94.023438 91.796875 94.203125 91.980469 C 94.382812 92.160156 94.679688 92.160156 94.859375 91.980469 C 95.039062 91.796875 95.039062 91.503906 94.859375 91.324219 Z M 93.730469 92.453125 C 93.550781 92.269531 93.257812 92.269531 93.074219 92.453125 C 92.894531 92.632812 92.894531 92.925781 93.074219 93.109375 C 93.257812 93.289062 93.550781 93.289062 93.730469 93.109375 C 93.910156 92.925781 93.910156 92.632812 93.730469 92.453125 Z M 92.601562 93.582031 C 92.421875 93.398438 92.128906 93.398438 91.945312 93.582031 C 91.765625 93.761719 91.765625 94.054688 91.945312 94.234375 C 92.128906 94.417969 92.421875 94.417969 92.601562 94.234375 C 92.785156 94.054688 92.785156 93.761719 92.601562 93.582031 Z M 91.472656 94.710938 C 91.292969 94.527344 91 94.527344 90.820312 94.710938 C 90.636719 94.890625 90.636719 95.183594 90.816406 95.367188 C 91 95.546875 91.292969 95.546875 91.472656 95.363281 C 91.652344 95.183594 91.65625 94.890625 91.472656 94.710938 Z M 90.34375 95.839844 C 90.164062 95.65625 89.871094 95.65625 89.6875 95.839844 C 89.507812 96.019531 89.507812 96.3125 89.6875 96.496094 C 89.867188 96.675781 90.160156 96.675781 90.34375 96.492188 C 90.527344 96.3125 90.527344 96.019531 90.34375 95.839844 Z M 89.214844 96.96875 C 89.035156 96.785156 88.742188 96.785156 88.5625 96.96875 C 88.378906 97.148438 88.378906 97.441406 88.558594 97.625 C 88.742188 97.804688 89.035156 97.804688 89.214844 97.621094 C 89.398438 97.441406 89.398438 97.148438 89.214844 96.96875 Z M 88.085938 98.09375 C 87.90625 97.914062 87.613281 97.914062 87.433594 98.09375 C 87.25 98.277344 87.25 98.570312 87.429688 98.753906 C 87.613281 98.933594 87.90625 98.933594 88.085938 98.75 C 88.265625 98.570312 88.269531 98.277344 88.085938 98.09375 Z M 86.957031 99.226562 C 86.777344 99.042969 86.484375 99.042969 86.300781 99.226562 C 86.121094 99.40625 86.121094 99.699219 86.300781 99.882812 C 86.484375 100.0625 86.777344 100.0625 86.957031 99.882812 C 87.140625 99.699219 87.140625 99.40625 86.957031 99.226562 Z M 99.375 86.808594 C 99.195312 86.628906 98.902344 86.628906 98.71875 86.808594 C 98.539062 86.988281 98.539062 87.28125 98.71875 87.464844 C 98.902344 87.644531 99.195312 87.644531 99.375 87.464844 C 99.554688 87.285156 99.554688 86.988281 99.375 86.808594 Z M 56.398438 36.226562 L 99.839844 79.664062 C 98.070312 81.4375 98.070312 84.308594 99.839844 86.078125 C 101.609375 87.847656 104.484375 87.847656 106.253906 86.078125 L 122.800781 102.628906 L 122.726562 102.703125 C 122.269531 102.246094 121.527344 102.246094 121.070312 102.703125 C 120.613281 103.160156 120.613281 103.902344 121.070312 104.359375 L 119.878906 105.550781 C 119.421875 105.09375 118.683594 105.09375 118.226562 105.550781 C 117.769531 106.007812 117.769531 106.746094 118.226562 107.203125 L 117.035156 108.394531 C 116.578125 107.9375 115.835938 107.9375 115.378906 108.394531 C 114.921875 108.851562 114.921875 109.59375 115.378906 110.050781 L 114.1875 111.242188 C 113.730469 110.785156 112.988281 110.785156 112.53125 111.242188 C 112.074219 111.699219 112.074219 112.4375 112.53125 112.894531 L 111.34375 114.085938 C 110.886719 113.628906 110.144531 113.628906 109.6875 114.085938 C 109.230469 114.542969 109.230469 115.285156 109.6875 115.742188 L 108.496094 116.933594 C 108.039062 116.476562 107.296875 116.476562 106.839844 116.933594 C 106.382812 117.390625 106.382812 118.132812 106.839844 118.589844 L 105.652344 119.777344 C 105.195312 119.320312 104.453125 119.320312 103.996094 119.777344 C 103.539062 120.234375 103.539062 120.976562 103.996094 121.433594 L 102.804688 122.625 C 102.347656 122.167969 101.605469 122.167969 101.148438 122.625 C 100.691406 123.082031 100.691406 123.824219 101.148438 124.28125 L 99.960938 125.46875 C 99.503906 125.011719 98.761719 125.011719 98.304688 125.46875 C 97.847656 125.925781 97.847656 126.667969 98.304688 127.125 L 97.113281 128.316406 C 96.65625 127.859375 95.914062 127.859375 95.457031 128.316406 C 95 128.773438 95 129.515625 95.457031 129.972656 L 94.269531 131.160156 C 93.8125 130.703125 93.070312 130.703125 92.613281 131.160156 C 92.15625 131.617188 92.15625 132.359375 92.613281 132.816406 L 91.421875 134.007812 C 90.964844 133.550781 90.222656 133.550781 89.765625 134.007812 C 89.308594 134.464844 89.308594 135.207031 89.765625 135.664062 L 89.691406 135.738281 L 73.140625 119.191406 C 74.914062 117.417969 74.914062 114.546875 73.140625 112.777344 C 71.371094 111.007812 68.5 111.007812 66.726562 112.777344 L 23.289062 69.335938 L 23.363281 69.261719 C 23.820312 69.71875 24.5625 69.71875 25.019531 69.261719 C 25.476562 68.804688 25.476562 68.0625 25.019531 67.605469 L 26.210938 66.414062 C 26.667969 66.871094 27.410156 66.871094 27.867188 66.414062 C 28.324219 65.957031 28.324219 65.214844 27.867188 64.757812 L 29.054688 63.570312 C 29.511719 64.027344 30.253906 64.027344 30.710938 63.570312 C 31.167969 63.113281 31.167969 62.371094 30.710938 61.914062 L 31.902344 60.722656 C 32.359375 61.179688 33.101562 61.179688 33.558594 60.722656 C 34.015625 60.265625 34.015625 59.523438 33.558594 59.066406 L 34.746094 57.878906 C 35.203125 58.335938 35.945312 58.335938 36.402344 57.878906 C 36.859375 57.421875 36.859375 56.679688 36.402344 56.222656 L 37.59375 55.03125 C 38.050781 55.488281 38.792969 55.488281 39.25 55.03125 C 39.707031 54.574219 39.707031 53.832031 39.25 53.375 L 40.4375 52.1875 C 40.894531 52.644531 41.636719 52.644531 42.09375 52.1875 C 42.550781 51.730469 42.550781 50.988281 42.09375 50.53125 L 43.285156 49.339844 C 43.742188 49.796875 44.484375 49.796875 44.941406 49.339844 C 45.398438 48.882812 45.398438 48.140625 44.941406 47.683594 L 46.132812 46.492188 C 46.589844 46.949219 47.328125 46.949219 47.785156 46.492188 C 48.242188 46.035156 48.242188 45.296875 47.785156 44.839844 L 48.976562 43.648438 C 49.433594 44.105469 50.175781 44.105469 50.632812 43.648438 C 51.089844 43.191406 51.089844 42.449219 50.632812 41.992188 L 51.824219 40.800781 C 52.28125 41.257812 53.019531 41.257812 53.476562 40.800781 C 53.933594 40.34375 53.933594 39.605469 53.476562 39.148438 L 54.667969 37.957031 C 55.125 38.414062 55.867188 38.414062 56.324219 37.957031 C 56.78125 37.5 56.78125 36.757812 56.324219 36.300781 Z M 56.398438 36.226562 "/></g></g></g><g clip-rule="nonzero" clip-path="url(#b47399ce86)"><path style=" stroke:none;fill-rule:nonzero;fill:#ffffff;fill-opacity:1;" d="M 80.898438 75.191406 L 78.34375 72.542969 C 78.144531 72.339844 78.050781 72.050781 78.089844 71.769531 L 78.605469 68.128906 C 78.816406 66.636719 77.816406 65.261719 76.332031 65.003906 L 72.707031 64.367188 C 72.429688 64.316406 72.183594 64.136719 72.050781 63.886719 L 70.328125 60.640625 C 69.621094 59.304688 68.003906 58.78125 66.648438 59.445312 L 63.347656 61.0625 C 63.089844 61.1875 62.789062 61.1875 62.53125 61.0625 L 59.230469 59.445312 C 57.871094 58.78125 56.257812 59.304688 55.550781 60.640625 L 53.828125 63.886719 C 53.695312 64.140625 53.453125 64.316406 53.171875 64.367188 L 49.546875 65.003906 C 48.0625 65.261719 47.0625 66.636719 47.273438 68.128906 L 47.789062 71.769531 C 47.828125 72.054688 47.738281 72.335938 47.535156 72.542969 L 44.980469 75.191406 C 43.933594 76.273438 43.933594 77.972656 44.980469 79.054688 L 47.535156 81.699219 C 47.734375 81.902344 47.828125 82.191406 47.789062 82.472656 L 47.273438 86.113281 C 47.0625 87.609375 48.0625 88.980469 49.546875 89.242188 L 53.171875 89.875 C 53.449219 89.925781 53.695312 90.105469 53.828125 90.355469 L 55.550781 93.605469 C 56.257812 94.9375 57.875 95.464844 59.230469 94.800781 L 62.53125 93.183594 C 62.789062 93.058594 63.089844 93.058594 63.347656 93.183594 L 66.648438 94.800781 C 67.046875 94.992188 67.464844 95.085938 67.878906 95.085938 C 68.875 95.085938 69.828125 94.546875 70.328125 93.605469 L 72.050781 90.355469 C 72.183594 90.101562 72.425781 89.925781 72.707031 89.875 L 76.332031 89.242188 C 77.816406 88.984375 78.816406 87.609375 78.605469 86.117188 L 78.089844 82.472656 C 78.050781 82.1875 78.140625 81.90625 78.34375 81.699219 L 80.898438 79.054688 C 81.945312 77.972656 81.945312 76.273438 80.898438 75.191406 Z M 79.566406 77.765625 L 77.007812 80.410156 C 76.410156 81.03125 76.136719 81.878906 76.253906 82.730469 L 76.769531 86.375 C 76.839844 86.871094 76.503906 87.328125 76.011719 87.417969 L 72.386719 88.050781 C 71.535156 88.203125 70.816406 88.726562 70.414062 89.488281 L 68.691406 92.734375 C 68.457031 93.179688 67.917969 93.355469 67.464844 93.132812 L 64.160156 91.515625 C 63.78125 91.332031 63.359375 91.234375 62.941406 91.234375 C 62.519531 91.234375 62.097656 91.332031 61.71875 91.519531 L 58.414062 93.132812 C 57.964844 93.355469 57.421875 93.179688 57.1875 92.734375 L 55.464844 89.488281 C 55.0625 88.722656 54.339844 88.199219 53.488281 88.050781 L 49.867188 87.414062 C 49.375 87.328125 49.039062 86.871094 49.109375 86.375 L 49.625 82.730469 C 49.742188 81.878906 49.46875 81.03125 48.871094 80.410156 L 46.3125 77.765625 C 45.964844 77.402344 45.964844 76.839844 46.3125 76.476562 L 48.871094 73.832031 C 49.46875 73.210938 49.742188 72.367188 49.625 71.511719 L 49.109375 67.871094 C 49.039062 67.371094 49.375 66.914062 49.867188 66.828125 L 53.492188 66.191406 C 54.34375 66.042969 55.0625 65.519531 55.464844 64.753906 L 57.1875 61.507812 C 57.421875 61.0625 57.964844 60.890625 58.414062 61.109375 L 61.71875 62.726562 C 62.480469 63.097656 63.398438 63.101562 64.160156 62.726562 L 67.464844 61.109375 C 67.917969 60.886719 68.457031 61.0625 68.691406 61.507812 L 70.414062 64.757812 C 70.816406 65.519531 71.539062 66.042969 72.390625 66.191406 L 76.011719 66.828125 C 76.503906 66.914062 76.839844 67.371094 76.769531 67.871094 L 76.253906 71.511719 C 76.136719 72.367188 76.410156 73.210938 77.007812 73.832031 L 79.566406 76.476562 C 79.914062 76.839844 79.914062 77.402344 79.566406 77.765625 Z M 79.566406 77.765625 "/></g><path style=" stroke:none;fill-rule:nonzero;fill:#ffffff;fill-opacity:1;" d="M 69.15625 70.90625 C 68.792969 70.542969 68.207031 70.542969 67.84375 70.90625 L 56.722656 82.027344 C 56.359375 82.390625 56.359375 82.976562 56.722656 83.339844 C 56.902344 83.519531 57.140625 83.609375 57.378906 83.609375 C 57.617188 83.609375 57.851562 83.519531 58.035156 83.339844 L 69.15625 72.214844 C 69.519531 71.855469 69.519531 71.265625 69.15625 70.90625 Z M 69.15625 70.90625 "/><path style=" stroke:none;fill-rule:nonzero;fill:#ffffff;fill-opacity:1;" d="M 62.015625 72.488281 C 62.015625 70.445312 60.351562 68.78125 58.308594 68.78125 C 56.261719 68.78125 54.597656 70.445312 54.597656 72.488281 C 54.597656 74.535156 56.261719 76.199219 58.308594 76.199219 C 60.351562 76.199219 62.015625 74.535156 62.015625 72.488281 Z M 56.453125 72.488281 C 56.453125 71.464844 57.285156 70.632812 58.308594 70.632812 C 59.328125 70.632812 60.164062 71.464844 60.164062 72.488281 C 60.164062 73.511719 59.328125 74.34375 58.308594 74.34375 C 57.285156 74.34375 56.453125 73.511719 56.453125 72.488281 Z M 56.453125 72.488281 "/><path style=" stroke:none;fill-rule:nonzero;fill:#ffffff;fill-opacity:1;" d="M 67.570312 78.046875 C 65.527344 78.046875 63.863281 79.707031 63.863281 81.753906 C 63.863281 83.800781 65.527344 85.464844 67.570312 85.464844 C 69.617188 85.464844 71.28125 83.800781 71.28125 81.753906 C 71.28125 79.707031 69.617188 78.046875 67.570312 78.046875 Z M 67.570312 83.609375 C 66.550781 83.609375 65.714844 82.777344 65.714844 81.753906 C 65.714844 80.730469 66.550781 79.898438 67.570312 79.898438 C 68.59375 79.898438 69.425781 80.730469 69.425781 81.753906 C 69.425781 82.777344 68.59375 83.609375 67.570312 83.609375 Z M 67.570312 83.609375 "/><g clip-rule="nonzero" clip-path="url(#d846c07e00)"><g clip-rule="nonzero" clip-path="url(#ff2e3eaee7)"><g clip-rule="nonzero" clip-path="url(#c31aa79b52)"><path style=" stroke:none;fill-rule:nonzero;fill:#151515;fill-opacity:1;" d="M 25.066406 135.386719 C 25.394531 135.367188 25.890625 135.214844 26.183594 135.058594 C 27.09375 134.558594 45.683594 115.832031 45.875 115.195312 C 46.078125 114.578125 45.632812 113.992188 44.996094 114.046875 C 44.171875 114.148438 41.933594 116.003906 36.433594 121.199219 C 33.371094 124.085938 30.035156 127.113281 29.019531 127.886719 C 26.390625 129.933594 23.671875 132.925781 23.621094 133.804688 C 23.570312 134.644531 24.308594 135.417969 25.066406 135.386719 Z M 25.066406 135.386719 "/></g></g></g><g clip-rule="nonzero" clip-path="url(#6822ba4b8e)"><g clip-rule="nonzero" clip-path="url(#869f0fca1c)"><g clip-rule="nonzero" clip-path="url(#05ee6465ca)"><path style=" stroke:none;fill-rule:nonzero;fill:#151515;fill-opacity:1;" d="M 14.320312 101.5625 C 14.835938 101.9375 15.230469 101.921875 17.65625 101.492188 C 18.652344 101.320312 21.09375 101.113281 23.054688 101.042969 C 30.019531 100.753906 34.316406 100.441406 35.210938 100.167969 L 36.089844 99.875 L 35.675781 99.460938 C 35.144531 98.929688 32.613281 98.636719 29.8125 98.757812 C 25.496094 98.945312 20.699219 98.859375 17.929688 98.535156 C 16.296875 98.34375 14.835938 98.328125 14.472656 98.515625 C 13.21875 99.117188 13.132812 100.71875 14.320312 101.5625 Z M 14.320312 101.5625 "/></g></g></g><g clip-rule="nonzero" clip-path="url(#bd22c75319)"><g clip-rule="nonzero" clip-path="url(#840341aec0)"><g clip-rule="nonzero" clip-path="url(#968a1df910)"><path style=" stroke:none;fill-rule:nonzero;fill:#151515;fill-opacity:1;" d="M 27.988281 112.859375 C 28.296875 112.824219 30.191406 112.203125 32.183594 111.484375 C 35.589844 110.246094 37.328125 109.265625 37.1875 108.679688 C 37.101562 108.25 35.863281 108.148438 34.59375 108.421875 C 33.9375 108.59375 32.097656 109.023438 30.515625 109.367188 C 27.59375 110.054688 26.527344 110.640625 26.527344 111.570312 C 26.527344 112.1875 27.351562 112.910156 27.988281 112.859375 Z M 27.988281 112.859375 "/></g></g></g><g clip-rule="nonzero" clip-path="url(#6856f7a637)"><g clip-rule="nonzero" clip-path="url(#60f983909f)"><g clip-rule="nonzero" clip-path="url(#56a5e79253)"><path style=" stroke:none;fill-rule:nonzero;fill:#151515;fill-opacity:1;" d="M 47.179688 130.671875 C 48.28125 131.15625 49.261719 129.589844 49.914062 126.324219 C 50.136719 125.171875 50.480469 123.796875 50.652344 123.210938 C 51.101562 121.835938 51.136719 120.425781 50.738281 120.027344 C 50.445312 119.738281 50.34375 119.769531 49.964844 120.390625 C 49.449219 121.285156 48.175781 124.105469 47.695312 125.410156 C 47.488281 125.960938 47.09375 127.046875 46.765625 127.820312 C 46.148438 129.433594 46.25 130.296875 47.179688 130.671875 Z M 47.179688 130.671875 "/></g></g></g><g clip-rule="nonzero" clip-path="url(#091fc6530f)"><g clip-rule="nonzero" clip-path="url(#6ae91156fd)"><g clip-rule="nonzero" clip-path="url(#41c966f9cb)"><path style=" stroke:none;fill-rule:nonzero;fill:#151515;fill-opacity:1;" d="M 61.347656 143.535156 C 62.070312 143.535156 62.742188 143.140625 62.878906 142.625 C 63 142.195312 62.914062 140.941406 62.449219 136.039062 C 61.96875 131.050781 61.867188 128.816406 62.039062 126.992188 C 62.226562 124.945312 62.070312 123.175781 61.625 122.042969 C 61.28125 121.179688 61.246094 121.148438 60.953125 121.4375 C 60.816406 121.578125 60.660156 122.695312 60.609375 123.949219 C 60.558594 125.207031 60.386719 126.855469 60.230469 127.664062 C 60.078125 128.4375 59.941406 130.914062 59.921875 133.167969 C 59.886719 135.402344 59.785156 138.1875 59.699219 139.375 C 59.578125 140.5625 59.578125 141.730469 59.648438 142.003906 C 59.871094 142.746094 60.746094 143.519531 61.347656 143.535156 Z M 61.347656 143.535156 "/></g></g></g><g clip-rule="nonzero" clip-path="url(#41ebf00c3b)"><g clip-rule="nonzero" clip-path="url(#390d63342b)"><g clip-rule="nonzero" clip-path="url(#343cfce23e)"><path style=" stroke:none;fill-rule:nonzero;fill:#151515;fill-opacity:1;" d="M 122.433594 38.019531 C 122.414062 38.34375 122.261719 38.84375 122.105469 39.136719 C 121.609375 40.046875 102.882812 58.636719 102.246094 58.824219 C 101.625 59.03125 101.042969 58.585938 101.09375 57.949219 C 101.195312 57.121094 103.054688 54.886719 108.246094 49.382812 C 111.136719 46.324219 114.160156 42.988281 114.933594 41.972656 C 116.980469 39.34375 119.972656 36.625 120.851562 36.574219 C 121.695312 36.523438 122.46875 37.261719 122.433594 38.019531 Z M 122.433594 38.019531 "/></g></g></g><g clip-rule="nonzero" clip-path="url(#320d5f8f5e)"><g clip-rule="nonzero" clip-path="url(#80ad170d7d)"><g clip-rule="nonzero" clip-path="url(#c3c5ddee24)"><path style=" stroke:none;fill-rule:nonzero;fill:#151515;fill-opacity:1;" d="M 88.609375 27.269531 C 88.988281 27.785156 88.96875 28.183594 88.539062 30.605469 C 88.367188 31.605469 88.160156 34.046875 88.09375 36.007812 C 87.800781 42.96875 87.492188 47.269531 87.214844 48.164062 L 86.921875 49.039062 L 86.511719 48.628906 C 85.976562 48.09375 85.683594 45.566406 85.804688 42.765625 C 85.996094 38.449219 85.910156 33.648438 85.582031 30.882812 C 85.394531 29.25 85.375 27.785156 85.566406 27.425781 C 86.167969 26.171875 87.765625 26.085938 88.609375 27.269531 Z M 88.609375 27.269531 "/></g></g></g><g clip-rule="nonzero" clip-path="url(#445304541f)"><g clip-rule="nonzero" clip-path="url(#63eb330df2)"><g clip-rule="nonzero" clip-path="url(#54cfa71e12)"><path style=" stroke:none;fill-rule:nonzero;fill:#151515;fill-opacity:1;" d="M 99.90625 40.941406 C 99.871094 41.25 99.253906 43.144531 98.53125 45.136719 C 97.292969 48.542969 96.3125 50.277344 95.726562 50.140625 C 95.296875 50.054688 95.195312 48.816406 95.46875 47.542969 C 95.640625 46.890625 96.070312 45.050781 96.414062 43.46875 C 97.101562 40.546875 97.6875 39.480469 98.617188 39.480469 C 99.234375 39.480469 99.957031 40.304688 99.90625 40.941406 Z M 99.90625 40.941406 "/></g></g></g><g clip-rule="nonzero" clip-path="url(#3a19967cfe)"><g clip-rule="nonzero" clip-path="url(#e9d4287418)"><g clip-rule="nonzero" clip-path="url(#b6a2c36f65)"><path style=" stroke:none;fill-rule:nonzero;fill:#151515;fill-opacity:1;" d="M 117.722656 60.132812 C 118.203125 61.234375 116.636719 62.214844 113.371094 62.867188 C 112.21875 63.089844 110.84375 63.433594 110.257812 63.605469 C 108.882812 64.054688 107.472656 64.085938 107.078125 63.691406 C 106.785156 63.398438 106.820312 63.296875 107.4375 62.917969 C 108.332031 62.402344 111.152344 61.128906 112.460938 60.648438 C 113.007812 60.441406 114.09375 60.046875 114.867188 59.71875 C 116.484375 59.101562 117.34375 59.203125 117.722656 60.132812 Z M 117.722656 60.132812 "/></g></g></g><g clip-rule="nonzero" clip-path="url(#0172f8aa59)"><g clip-rule="nonzero" clip-path="url(#610f6d0a5e)"><g clip-rule="nonzero" clip-path="url(#052d17be07)"><path style=" stroke:none;fill-rule:nonzero;fill:#151515;fill-opacity:1;" d="M 130.582031 74.300781 C 130.582031 75.023438 130.1875 75.695312 129.671875 75.832031 C 129.242188 75.953125 127.988281 75.867188 123.085938 75.402344 C 118.097656 74.921875 115.863281 74.816406 114.042969 74.988281 C 111.996094 75.179688 110.222656 75.023438 109.089844 74.578125 C 108.230469 74.234375 108.195312 74.199219 108.488281 73.90625 C 108.625 73.769531 109.742188 73.613281 110.996094 73.5625 C 112.253906 73.511719 113.902344 73.339844 114.710938 73.183594 C 115.484375 73.027344 117.960938 72.890625 120.214844 72.875 C 122.449219 72.839844 125.234375 72.738281 126.421875 72.652344 C 127.609375 72.53125 128.777344 72.53125 129.054688 72.597656 C 129.792969 72.824219 130.566406 73.699219 130.582031 74.300781 Z M 130.582031 74.300781 "/></g></g></g></g></svg>